<svg width="230" height="40" viewBox="0 0 230 40" fill="none" xmlns="http://www.w3.org/2000/svg">
	<path fill-rule="evenodd" clip-rule="evenodd" d="M90.092 27.8256L90.0921 27.8259C90.6122 29.1918 90.7278 30.4983 90.5544 31.8048C90.1499 34.5365 88.4162 36.9119 85.8734 37.9809C84.9487 38.3966 83.9663 38.5747 82.926 38.5747H82.926C82.637 38.5747 82.2903 38.5747 82.0014 38.5153C80.7877 38.3966 79.5741 37.9809 78.3605 37.2682C76.9157 36.4368 75.471 35.1897 73.8528 33.4082C72.2347 35.1897 70.8477 36.4368 69.3451 37.2682C68.1315 37.9809 66.9179 38.3372 65.7043 38.5153C65.5598 38.5153 65.4009 38.5302 65.242 38.545C65.083 38.5599 64.9241 38.5747 64.7796 38.5747C63.7394 38.5747 62.7569 38.3966 61.8323 37.9809C59.3473 36.9119 57.498 34.5959 57.0934 31.8048C56.92 30.4389 57.0934 29.1324 57.5557 27.8259C57.7291 27.2914 57.9025 26.8757 58.0759 26.46C58.3648 25.8068 58.6538 25.1536 58.8849 24.5597L58.9427 24.5003C61.4855 18.9181 64.1439 13.2764 66.9179 7.69417L67.0335 7.45663C67.3224 6.92219 67.6114 6.32836 67.9003 5.73453L67.9003 5.73445C67.9782 5.60877 68.056 5.4809 68.1346 5.35167C68.4648 4.8092 68.8095 4.2429 69.2295 3.71533C70.4431 2.29008 72.0613 1.45868 73.8528 1.45868C75.5865 1.45868 77.2625 2.29008 78.4183 3.77472C78.9962 4.42796 79.4008 5.14059 79.7475 5.79383L79.7475 5.79385C80.0365 6.3877 80.3254 6.98155 80.6144 7.51602L80.73 7.75356C83.5617 13.3358 86.2201 18.9774 88.7051 24.5597H88.7629C88.9941 25.1536 89.283 25.8068 89.572 26.46C89.7453 26.8756 89.9186 27.3506 90.092 27.8256ZM118.005 10.7822C118.005 12.1481 116.965 13.217 115.636 13.217C114.307 13.217 113.266 12.1481 113.266 10.7822C113.266 9.41636 114.307 8.34741 115.636 8.34741C117.023 8.4068 118.005 9.47574 118.005 10.7822ZM108.354 15.6518V16.2457C108.354 16.2457 107.256 14.7611 104.829 14.7611C100.899 14.7611 97.8361 17.8491 97.8361 22.1249C97.8361 26.3413 100.899 29.4887 104.829 29.4887C107.256 29.4887 108.354 27.9447 108.354 27.9447V28.5979C108.354 28.8948 108.585 29.1324 108.874 29.1324H111.821V15.1174H108.874C108.527 15.1174 108.354 15.3549 108.354 15.6518ZM105.407 26.1037C106.736 26.1037 107.834 25.3911 108.354 24.5597V19.5713C107.834 18.7993 106.678 18.0273 105.407 18.0273C103.095 18.0273 101.304 19.5119 101.304 22.0655C101.304 24.6191 103.095 26.1037 105.407 26.1037ZM113.902 15.1174H117.369V29.073H113.902V15.1174ZM162.215 16.2457C162.215 16.2457 163.371 14.7611 165.741 14.7611C169.67 14.7611 172.733 17.8491 172.733 22.0655C172.733 26.2819 169.67 29.4293 165.741 29.4293C163.313 29.4293 162.215 27.8853 162.215 27.8853V28.5385C162.215 28.8355 161.984 29.073 161.695 29.073H158.748V8.40679H162.215V16.2457ZM165.163 26.0443C163.833 26.0443 162.793 25.3317 162.215 24.5003V19.5119C162.735 18.7399 163.891 17.9679 165.163 17.9679C167.474 17.9679 169.266 19.4525 169.266 22.0061C169.266 24.5597 167.474 26.0443 165.163 26.0443ZM156.956 29.1324V20.8184C156.956 18.443 156.494 17.1365 155.338 16.1269C154.298 15.2361 153.027 14.7611 151.524 14.7611C150.195 14.7611 148.866 15.1768 147.825 16.2457V15.6518C147.825 15.3549 147.594 15.1174 147.305 15.1174H144.531V29.1324H147.999V19.3931C148.692 18.5617 149.79 18.0273 150.83 18.0273C152.738 18.0273 153.489 18.9181 153.489 21.2341V29.1324H156.956ZM136.094 14.7611C133.724 14.7611 132.569 16.2457 132.569 16.2457V8.40679H129.101V29.073H132.048C132.337 29.073 132.569 28.8355 132.569 28.5385V27.8853C132.569 27.8853 133.667 29.4293 136.094 29.4293C140.024 29.4293 143.087 26.2819 143.087 22.0655C143.144 17.8491 140.081 14.7611 136.094 14.7611ZM132.568 24.5003C133.146 25.3317 134.187 26.0443 135.516 26.0443C137.827 26.0443 139.619 24.5597 139.619 22.0061C139.619 19.4525 137.827 17.9679 135.516 17.9679C134.244 17.9679 133.089 18.7399 132.568 19.5119V24.5003ZM126.154 14.7611C127.194 14.7611 127.772 14.9392 127.772 14.9392V18.2648C127.772 18.2648 124.882 17.2553 123.091 19.3931V29.1324H119.623V15.1174H122.571C122.86 15.1174 123.091 15.3549 123.091 15.6518V16.2457C123.669 15.4737 125.056 14.7611 126.154 14.7611ZM73.7951 29.7263C71.8302 27.1727 70.5588 24.7972 70.1542 22.8375C69.9809 22.0061 69.9231 21.2341 70.0386 20.5809C70.0964 19.987 70.3276 19.4525 70.6166 19.0368C71.3101 18.0273 72.4659 17.374 73.7951 17.374C75.1243 17.374 76.3379 17.9679 76.9736 19.0368C77.2625 19.5119 77.4937 19.987 77.5515 20.5809C77.6671 21.2341 77.6093 22.0061 77.4359 22.8375C77.0314 24.7972 75.76 27.1727 73.7951 29.7263ZM84.9486 35.843C86.7402 35.1303 88.0116 33.4675 88.2427 31.5078C88.3583 30.4983 88.2427 29.6075 88.0694 28.6573C88.0068 28.4644 87.9273 28.2715 87.84 28.0597C87.7661 27.8804 87.6865 27.6875 87.607 27.4696C87.4626 27.1727 87.3325 26.8609 87.2025 26.5491C87.0725 26.2373 86.9424 25.9256 86.798 25.6286V25.5692C84.3129 20.0464 81.6546 14.4047 78.8806 8.88187L78.765 8.64433C78.476 8.05047 78.1871 7.45662 77.8981 6.92215C77.6092 6.32829 77.2624 5.73443 76.8579 5.25935C76.1066 4.36856 75.0664 3.89348 73.9683 3.89348C72.8703 3.89348 71.8301 4.36856 71.0788 5.25935C70.6743 5.79382 70.3275 6.32829 70.0386 6.92215L70.0385 6.92225C69.7496 7.51607 69.4606 8.10989 69.1717 8.64433L69.0561 8.88187C66.2243 14.4047 63.566 20.0464 61.0809 25.5692L61.0232 25.6286C60.7342 26.2225 60.4452 26.8757 60.2141 27.4696C60.0407 27.8853 59.8673 28.301 59.7517 28.6573C59.3472 29.7262 59.2894 30.617 59.405 31.5672C59.6362 33.4675 60.9076 35.1303 62.6991 35.9023C63.5082 36.1993 64.4328 36.3774 65.4153 36.2587C66.3399 36.1399 67.2646 35.843 68.1892 35.3085C69.4606 34.5365 70.7898 33.4081 72.2924 31.686C69.923 28.6573 68.4204 25.8662 67.9003 23.4314C67.6113 22.303 67.5535 21.2341 67.7269 20.2839C67.9003 19.3337 68.1892 18.5023 68.7094 17.7303C69.8074 16.1269 71.7145 15.1174 73.795 15.1174C75.8755 15.1174 77.7826 16.0675 78.8806 17.7303C79.4007 18.5023 79.6897 19.3337 79.863 20.2839C79.9786 21.2341 79.9208 22.303 79.6897 23.4314C79.1117 25.8662 77.667 28.5979 75.2975 31.6266C76.8001 33.3488 78.0715 34.4771 79.4007 35.2491C80.3832 35.7836 81.25 36.0805 82.1747 36.1993C83.1571 36.318 84.0818 36.1993 84.9486 35.843Z" fill="#AEC0CE" />
</svg>
