<svg width="225" height="211" viewBox="0 0 225 211" fill="none" xmlns="http://www.w3.org/2000/svg">
	<path fill-rule="evenodd" clip-rule="evenodd" d="M194.6 155.842C194.599 155.716 194.597 155.591 194.596 155.465C194.048 155.454 193.5 155.443 192.951 155.432C192.953 155.581 192.955 155.73 192.956 155.879C193.504 155.867 194.052 155.855 194.6 155.842ZM73.4591 129.642C73.4136 129.769 73.3674 129.897 73.3217 130.024C73.8966 130.276 74.4692 130.534 75.0513 130.768C75.0993 130.788 75.2571 130.663 75.2829 130.58C75.3163 130.475 75.2982 130.256 75.2471 130.237C74.6571 130.022 74.0569 129.836 73.4591 129.642ZM73.7873 147.229C73.8206 147.133 73.8534 147.038 73.8871 146.942C73.06 146.654 72.2324 146.367 71.4057 146.079C71.3649 146.197 71.3251 146.314 71.2842 146.431L73.7873 147.229ZM41.6731 35.1224L41.6545 35.2016C42.4238 35.631 43.1912 36.0625 43.962 36.4896C44.0845 36.5568 44.2165 36.6197 44.3515 36.647C44.3949 36.6564 44.4633 36.545 44.5199 36.4885C44.4026 36.3978 44.2972 36.2789 44.1655 36.2197C43.3384 35.8463 42.5047 35.4867 41.6731 35.1224ZM107.332 125.704C107.359 125.619 107.385 125.533 107.412 125.447C106.404 125.127 105.398 124.807 104.39 124.487C104.363 124.575 104.335 124.664 104.307 124.753C105.315 125.07 106.324 125.387 107.332 125.704ZM169.559 184.36C169.56 184.497 169.562 184.634 169.564 184.772C170.478 184.7 171.392 184.628 172.306 184.556C172.293 184.402 172.28 184.247 172.265 184.092C171.363 184.181 170.46 184.27 169.559 184.36ZM69.9077 178.87C69.9092 178.72 69.9108 178.57 69.9119 178.42C69.2875 178.289 68.666 178.136 68.0353 178.045C67.9055 178.027 67.7113 178.216 67.6118 178.355C67.5801 178.4 67.7464 178.693 67.8416 178.704C68.5273 178.784 69.2184 178.82 69.9077 178.87ZM72.381 68.9489C72.3463 69.0685 72.3116 69.1881 72.2779 69.3076C73.7369 69.774 75.1961 70.24 76.6553 70.706C76.6889 70.605 76.7225 70.5041 76.7561 70.4032C75.2976 69.9184 73.8395 69.4337 72.381 68.9489ZM45.9062 63.4433C45.9626 63.318 46.0194 63.193 46.0758 63.0677L42.8888 61.444C42.8254 61.5783 42.7631 61.7126 42.6999 61.8465C43.7685 62.3787 44.8376 62.9111 45.9062 63.4433ZM52.3091 98.2842C52.2827 98.4034 52.2558 98.5224 52.2293 98.6416C53.4472 99.0383 54.6645 99.4351 55.8822 99.8311C55.9244 99.6805 55.9673 99.5296 56.0095 99.379C54.7761 99.0144 53.5424 98.6492 52.3091 98.2842ZM57.9255 174.778L57.7914 175.07C58.6943 175.38 59.591 175.709 60.5057 175.98C60.6384 176.02 60.8524 175.785 61.0292 175.676C60.8979 175.558 60.7838 175.367 60.6338 175.333C59.7357 175.129 58.829 174.96 57.9255 174.778ZM82.1078 155.554C82.0928 155.634 82.0777 155.713 82.0627 155.791C83.6341 156.13 85.2057 156.469 86.7778 156.807C86.8037 156.672 86.83 156.537 86.8554 156.401C85.2732 156.119 83.6908 155.837 82.1078 155.554ZM156.625 178.268C156.64 178.384 156.655 178.5 156.671 178.616L163.432 179.061C163.439 178.939 163.447 178.819 163.455 178.698C161.178 178.555 158.901 178.411 156.625 178.268ZM152.788 92.4229C152.762 93.3014 153.563 94.2563 154.203 94.2448C154.396 94.2413 154.588 94.3845 154.786 94.4441C155.05 94.524 155.32 94.5882 155.588 94.6591C155.486 94.3923 155.463 94.0089 155.269 93.8802C154.501 93.3683 153.679 92.9356 152.788 92.4229ZM76.1429 110.972C76.1872 110.89 76.2313 110.809 76.2752 110.728L70.852 108.352C70.8182 108.438 70.7851 108.524 70.7518 108.611L76.1429 110.972ZM68.3089 60.2852C68.3275 60.2449 68.3462 60.2046 68.3643 60.1646L57.8656 55.5659C57.8475 55.6059 57.8293 55.6464 57.811 55.6869L68.3089 60.2852ZM56.0418 174.55L56.2439 174.048C54.8992 173.352 53.5609 172.644 52.2012 171.977C52.0545 171.905 51.7886 172.074 51.5782 172.131C51.6414 172.336 51.6482 172.668 51.7781 172.726C53.1886 173.359 54.6174 173.948 56.0418 174.55ZM47.3459 6.87525C47.3745 6.82513 47.4032 6.77459 47.4313 6.72428C43.9392 5.72334 40.4501 4.71107 36.95 3.73892C36.5718 3.63388 36.1285 3.76536 35.7155 3.78697C36.0499 3.83749 36.3844 3.88656 36.7188 3.93811C36.7593 3.94475 36.7972 3.96789 36.8375 3.9795C40.3404 4.9453 43.8431 5.91049 47.3459 6.87525ZM179.008 165.788C180.473 166.653 185.402 166.65 186.079 165.847C183.758 165.828 181.542 165.809 179.008 165.788ZM181.167 170.598C182.073 170.776 182.649 169.015 183.607 170.393C183.726 170.284 183.843 170.173 183.966 170.069C184.027 170.017 184.095 169.953 184.168 169.939C184.315 169.911 184.591 169.934 184.597 169.901C184.627 169.714 184.667 169.417 184.567 169.342C184.214 169.08 183.822 168.753 183.415 168.705C181.994 168.539 181.672 168.852 181.167 170.598ZM13.22 66.9515C13.1629 67.1497 13.106 67.3489 13.0489 67.5471C15.9792 68.4762 18.9092 69.4046 21.8392 70.333C21.8691 70.2462 21.8995 70.1595 21.9297 70.0733C19.0263 69.0323 16.1231 67.9919 13.22 66.9515ZM71.15 113.652C71.0846 113.789 71.0189 113.925 70.9534 114.062C75.118 116.051 79.2828 118.039 83.4477 120.028C79.3332 117.934 75.4491 115.362 71.15 113.652ZM78.1809 137.364C78.2293 137.26 78.2773 137.157 78.3255 137.054C78.0373 136.898 77.7541 136.733 77.4609 136.588C75.4392 135.589 73.4257 134.574 71.3853 133.616C71.0183 133.444 70.252 133.343 70.1627 133.496C69.7895 134.136 70.1579 134.57 70.8286 134.801C73.2824 135.647 75.7304 136.508 78.1809 137.364ZM195.785 188.247C195.695 188.109 195.605 187.972 195.515 187.834L183.562 196.048C184.632 195.647 185.647 195.106 186.679 194.597C186.961 194.458 187.443 193.782 187.488 194.786C187.624 194.767 187.793 194.791 187.888 194.719C188.014 194.623 188.171 194.335 188.165 194.33C187.439 193.788 188.176 193.687 188.431 193.503C190.877 191.743 193.333 189.997 195.785 188.247ZM33.4849 53.1828C33.4475 53.2704 33.4103 53.3576 33.3734 53.4455L51.6108 60.8214C51.6838 60.6328 51.7569 60.4441 51.8303 60.2556C45.7154 57.8983 39.5998 55.5401 33.4849 53.1828ZM2.99974 121.805C2.94647 121.882 2.89363 121.959 2.84061 122.036C3.35274 123.131 4.13924 124.184 4.31456 125.331C4.60095 127.204 5.4369 128.789 6.26436 130.412C6.32453 130.528 6.52075 130.574 6.6538 130.653C6.71945 130.486 6.87145 130.298 6.83737 130.154C6.19006 127.394 5.95119 124.463 3.6871 122.358C3.47272 122.158 3.22986 121.989 2.99974 121.805ZM10.0044 60.4799C16.5394 62.4582 22.7014 64.3242 28.8632 66.1895C22.9251 63.5461 16.853 61.3524 10.0044 60.4799ZM49.2515 80.517C48.9813 80.4547 48.7842 80.3825 48.5828 80.3685C48.2672 80.3479 47.9489 80.3655 47.6315 80.3674C47.8317 80.647 47.9699 81.0428 48.2418 81.1886C51.5886 82.9823 54.9528 84.7443 58.3237 86.491C58.4979 86.5809 58.8784 86.5481 58.9824 86.4225C59.0924 86.2899 59.0753 85.8426 58.9596 85.7667C58.1955 85.2654 57.4099 84.7869 56.5921 84.3782C55.6866 83.9255 54.7073 83.6147 53.8172 83.136C52.2507 82.2927 50.7274 81.369 49.2515 80.517ZM24.7703 70.2687C25.1088 70.4953 25.4212 70.7816 25.7892 70.9398C30.1857 72.8327 34.5864 74.7149 39 76.5679C39.3013 76.6948 39.7082 76.5706 40.0664 76.5634C39.8348 76.3104 39.6504 75.9671 39.3645 75.8186C34.7345 73.4154 29.8577 71.6367 24.7703 70.2687ZM96.3324 139.636C96.4017 139.424 96.4707 139.211 96.54 138.999C94.7234 138.366 92.903 137.744 91.0918 137.097C90.2683 136.803 89.4443 136.5 88.6551 136.127C87.5954 135.628 86.6063 134.961 85.52 134.538C83.6155 133.794 81.6386 133.236 79.7356 132.489C78.819 132.129 78.0162 131.488 77.1305 131.037C76.9183 130.929 76.5794 131.071 76.2989 131.098C76.3452 131.272 76.3354 131.528 76.4474 131.604C77.1132 132.055 77.7741 132.536 78.4991 132.872C79.6712 133.415 80.8994 133.835 82.09 134.341C83.5317 134.953 84.9445 135.635 86.3946 136.224C87.9445 136.853 89.511 137.446 91.0933 137.986C92.8258 138.577 94.5848 139.09 96.3324 139.636ZM94.7301 150.952C94.2658 150.663 93.8282 150.217 93.3154 150.099C88.4378 148.976 83.5385 147.947 78.6644 146.809C76.3829 146.275 74.1447 145.556 71.8809 144.944C71.6993 144.895 71.4693 145.028 71.2613 145.076C71.3602 145.249 71.42 145.48 71.5675 145.582C71.8039 145.747 72.0896 145.859 72.37 145.937C75.638 146.845 78.9034 147.762 82.1804 148.636C83.9823 149.116 85.7891 149.604 87.6216 149.934C89.9449 150.351 92.2962 150.611 94.7301 150.952ZM151.11 193.298C143.844 191.374 136.578 189.451 129.312 187.527C136.132 191.166 143.515 192.639 151.11 193.298ZM92.9922 145.162L93.1093 144.725C92.7895 144.602 92.4791 144.431 92.1478 144.364C90.6316 144.056 89.0852 143.867 87.5936 143.472C81.9655 141.979 76.3556 140.419 70.7345 138.902C70.5504 138.852 70.3143 138.992 70.1026 139.044C70.2243 139.234 70.3049 139.533 70.474 139.596C72.3439 140.295 74.1882 141.111 76.1153 141.595C80.2798 142.64 84.4845 143.53 88.6825 144.44C90.1045 144.748 91.5543 144.925 92.9922 145.162ZM6.41978 54.2354C16.7684 56.4113 26.7155 59.9141 36.6578 63.4303C26.9793 59.0444 17.0546 55.4697 6.41978 54.2354ZM91.1262 142.47C90.5755 142.145 90.3547 141.921 90.1035 141.881C87.7989 141.505 85.9534 139.868 83.4207 139.85C81.5268 139.837 79.6309 138.806 77.7579 138.165C77.3623 138.03 77.0619 137.617 76.7175 137.332C75.6997 138.695 75.1589 136.108 74.031 136.993C73.7972 137.176 72.7906 136.255 72.0833 136.003C71.687 135.862 71.1736 136.051 70.7128 136.091C70.8657 136.422 70.9303 136.912 71.1878 137.055C71.9399 137.472 72.7532 137.797 73.5702 138.077C79.1773 139.998 84.9105 141.42 91.1262 142.47ZM28.6336 50.2473C28.5957 50.3478 28.5583 50.4481 28.5203 50.5486C29.5989 50.9383 30.691 51.2924 31.7531 51.7218C38.4921 54.4494 45.2161 57.2145 51.9702 59.9028C52.7262 60.2036 53.6426 60.1011 54.4847 60.1857C54.5069 60.0243 54.5289 59.8622 54.5507 59.7006C46.1725 55.8333 37.4881 52.8069 28.6336 50.2473ZM35.9229 173.681C55.6825 181.304 75.7867 187.734 96.8171 190.96C75.8932 187.367 55.8498 180.725 35.9229 173.681ZM30.5666 162.715C30.5228 162.815 30.4788 162.915 30.4353 163.014C31.4019 163.803 32.3657 164.597 33.3406 165.375C33.4213 165.439 33.6002 165.364 33.7056 165.413C35.1341 166.082 36.5583 166.759 37.9819 167.439C38.4517 167.663 38.9169 167.897 39.3807 168.134C40.2266 168.567 41.0431 169.074 41.9214 169.426C43.0587 169.883 44.2418 170.227 45.4112 170.602C46.4266 170.928 47.4435 171.254 48.4729 171.532C48.978 171.669 49.511 171.719 50.0351 171.766C50.202 171.782 50.4938 171.7 50.5291 171.596C50.578 171.449 50.4969 171.17 50.3732 171.071C50.149 170.895 49.8562 170.802 49.5856 170.69C47.9487 170.015 46.301 169.366 44.675 168.666C43.6276 168.216 42.6246 167.663 41.5775 167.212C40.0582 166.557 38.5177 165.952 36.9855 165.327C34.8466 164.456 32.7068 163.586 30.5666 162.715ZM56.4935 43.8758C56.5219 43.8226 56.5503 43.7693 56.5786 43.7161C55.7884 43.1731 55.0466 42.5381 54.2009 42.1045C50.0789 39.9905 45.7025 38.5012 41.355 36.9367C39.7006 36.3413 38.1409 35.4869 36.5059 34.8308C35.5164 34.4338 34.3458 33.7599 33.4783 34.003C32.6796 34.2263 32.142 34.0807 31.5418 33.8637C30.9778 33.6596 30.5165 33.1506 29.9493 32.9849C29.2738 32.7875 28.534 32.8108 27.8215 32.7416C27.6385 32.7236 27.4545 32.7162 27.2712 32.7046C27.3606 32.919 27.3947 33.255 27.5507 33.3264C28.192 33.6204 28.866 33.8465 29.5363 34.0755C34.0188 35.6072 38.5295 37.0619 42.9806 38.6804C47.5153 40.3294 51.9916 42.1371 56.4935 43.8758ZM46.0697 64.639C41.9652 61.3681 18.8623 52.6441 11.9504 53.1173C12.3786 53.2498 12.6512 53.3389 12.9262 53.42C18.3967 55.0295 23.9176 56.4869 29.3229 58.2926C34.3267 59.9633 39.363 61.6199 43.9901 64.2592C44.4806 64.5387 45.1613 64.4844 46.0697 64.639ZM69.9357 59.7011C58.0391 53.1869 43.9633 47.2212 29.9091 43.2177C43.3354 48.7468 57.4704 54.5682 69.9357 59.7011ZM28.6729 36.4558C35.0739 38.8137 41.438 40.9894 47.6674 43.5004C53.9454 46.0307 60.0891 48.893 66.2919 51.61C66.3405 51.4979 66.3884 51.3861 66.4368 51.2735C63.8422 48.2536 34.0236 36.5323 28.6729 36.4558ZM8.61361 136.094C8.29241 135.488 7.97183 134.881 7.53026 134.046C7.46451 135.051 7.42136 135.717 7.38308 136.3C7.79986 136.229 8.22673 136.155 8.65397 136.082C7.75393 137.008 7.69838 137.708 9.02837 138.679C8.88806 137.765 8.75996 136.928 8.61361 136.094ZM160.211 92.594C160.509 92.7636 160.807 92.9319 161.104 93.102C161.389 93.2648 161.661 93.4548 161.96 93.5858C162.2 93.6908 162.653 93.8438 162.699 93.7719C163.151 93.0791 163.481 92.679 164.286 93.5133C164.638 93.8782 165.463 93.853 166.08 93.8786C166.908 93.9142 166.836 94.2301 166.528 94.7986C166.433 94.9753 166.565 95.2756 166.593 95.5191C166.738 95.4302 166.879 95.2724 167.028 95.265C167.68 95.2329 168.43 95.0339 168.971 95.2794C171.011 96.2036 172.928 97.4113 174.993 98.2636C178.093 99.5425 181.331 100.487 184.417 101.796C190.591 104.413 197.298 105.753 203.011 109.463C205.329 110.967 207.756 112.394 209.775 114.247C211.725 116.036 213.275 118.281 214.889 120.41C217.492 123.841 219.922 127.393 221.419 131.478C223.412 136.916 224.983 142.432 224.586 148.327C224.425 150.707 224.495 153.107 224.223 155.47C224.034 157.112 223.741 158.875 222.958 160.286C221.621 162.697 221.111 165.309 220.44 167.889C218.235 176.355 213.811 183.497 207.683 189.662C204.01 193.358 200.072 196.732 195.81 199.73C190.101 203.747 183.909 206.765 177.174 208.603C173.644 209.567 170.095 210.419 166.362 210.307C162.326 210.187 158.27 210.514 154.246 210.264C147.631 209.854 141.027 209.074 134.864 206.415C130.392 204.485 126.054 202.248 121.629 200.204C119.081 199.027 116.47 197.987 113.907 196.843C108.508 194.434 102.676 193.731 96.9547 192.753C84.766 190.671 72.763 187.916 61.0267 184.016C53.9336 181.658 46.7415 179.565 39.7591 176.918C30.3372 173.346 21.8591 168.185 15.4112 160.223C12.0027 156.014 9.61837 151.201 7.65213 146.164C5.87361 141.608 3.78055 137.168 2.18459 132.553C0.98164 129.073 -0.941806 126.03 -2.72397 122.894C-3.9732 120.696 -5.46423 118.63 -6.91807 116.554C-10.634 111.246 -15.7217 107.296 -20.4014 102.933C-23.9485 99.6266 -27.3136 96.1248 -30.7341 92.685C-30.9332 92.4847 -30.8951 92.052 -30.9814 91.7314C-31.0037 91.6474 -31.0602 91.5378 -31.1299 91.5078C-32.1985 91.0458 -32.7289 90.205 -33.1415 89.1295C-33.4142 88.4183 -34.2624 87.9442 -34.6219 87.2455C-36.2662 84.0505 -38.0863 80.9098 -39.344 77.562C-40.4361 74.6533 -41.0685 71.5228 -41.5188 68.4343C-41.9757 65.2939 -42.1495 62.0815 -42.1009 58.9065C-42.0516 55.6858 -41.6814 52.4593 -41.2682 49.2587C-40.4484 42.9121 -38.4294 36.8999 -35.3259 31.3375C-32.1584 25.6613 -27.977 20.716 -23.1109 16.3943C-21.1873 14.6854 -19.1424 13.1028 -17.0693 11.576C-15.9757 10.7705 -14.6841 10.238 -13.5165 9.52644C-12.7112 9.03544 -11.994 8.39876 -11.1862 7.9124C-6.58464 5.14009 -1.54641 3.52302 3.65503 2.33797C4.58576 2.12558 5.49552 1.82271 6.41983 1.57772C6.70205 1.5029 6.99875 1.45613 7.29084 1.44522C9.89067 1.34639 12.4917 1.27484 15.0901 1.14916C15.4837 1.13018 15.8792 0.724231 16.2512 0.756891C17.4455 0.861447 18.6324 1.16169 19.7813 0.555054C20.0326 1.48112 20.7494 0.699895 20.7743 0.721411C21.9848 1.75052 23.1114 0.452442 24.2627 0.631055C24.7167 0.701173 25.2414 0.591661 25.623 0.784553C26.0432 0.996397 27.0543 0.251157 26.8788 1.48764C27.3397 1.4234 27.7994 1.35261 28.2615 1.29702C28.8062 1.23163 29.3528 1.17919 29.9262 1.37683C29.6749 1.43289 29.4235 1.48938 29.1724 1.54502C37.7103 3.05098 46.1739 4.73345 53.8633 9.03321C53.9205 8.87952 53.978 8.72644 54.0346 8.57299C49.7186 6.82691 45.4025 5.08023 41.0859 3.33439C41.0849 3.31725 41.0838 3.30011 41.0829 3.28359C42.8993 3.86208 44.7404 4.37263 46.5275 5.03173C54.4864 7.96701 61.397 12.622 67.5546 18.361C71.9405 22.4488 76.0528 26.8304 80.3052 31.0628C82.4946 33.2417 84.7524 35.3532 86.9206 37.5527C87.8734 38.5189 88.6131 39.6958 89.5674 40.6597C90.8586 41.9634 92.2755 43.1415 93.6152 44.3979C94.738 45.4507 96.0412 46.4053 96.8328 47.6726C97.1731 48.218 97.5227 48.3293 97.9047 48.6309C98.1325 48.8105 98.1283 49.2686 98.2691 49.5833C98.3369 49.7341 98.564 49.974 98.6111 49.9507C99.4459 49.5458 99.7442 50.2274 100.232 50.652C102.406 52.5451 104.594 54.4234 106.826 56.2456C109.615 58.5214 112.387 60.8248 115.284 62.9554C118.539 65.349 121.888 67.6212 125.266 69.8387C128.565 72.0043 131.94 74.0572 135.307 76.117C138.068 77.8048 140.884 79.402 143.639 81.0971C144.753 81.7818 145.747 82.6589 146.845 83.3713C147.301 83.6681 148.016 83.6272 148.391 83.9774C149.354 84.8755 150.791 85.0674 151.559 86.3093C151.828 86.7438 152.811 86.676 153.358 87.0159C153.932 87.3731 154.374 87.9449 154.879 88.4178C154.954 88.4887 155.061 88.5876 155.145 88.5797C156.33 88.4581 156.884 89.0372 156.754 89.8702C157.383 90.0969 157.93 90.2654 158.453 90.4917C158.936 90.7004 159.369 91.0692 159.867 91.194C160.971 91.4695 160.605 92.0048 160.193 92.5922C160.113 92.2653 160.113 91.7013 159.956 91.6536C159.39 91.4811 158.773 91.4742 158.172 91.4309C158.1 91.4261 157.937 91.6044 157.952 91.6587C157.994 91.8014 158.085 92.0029 158.2 92.0389C158.863 92.247 159.539 92.414 160.211 92.594Z" fill="#F0F0FE" />
</svg>
