<svg width="1365" height="585" viewBox="0 0 1365 585" fill="none" xmlns="http://www.w3.org/2000/svg">
	<path d="M18.742 584.395C51.8821 587.566 90.22 572.21 115.843 555.873C140.316 540.364 161.67 521.035 181.965 502.308C190.914 494.239 200.043 485.718 209.428 477.926C248.305 444.771 283.779 426.323 317.707 421.349C356.204 415.873 389.42 428.446 421.675 440.693C424.733 441.925 427.619 442.906 430.678 444.138C463.195 456.41 506.248 468.281 548.982 452.171C561.493 447.497 572.975 440.61 584.103 433.924C593.729 428.268 603.445 422.387 613.672 417.964C659.253 398.134 705.575 407.968 729.277 415.639C748.605 421.951 766.506 430.475 783.708 438.698C797.506 445.185 811.477 451.924 826.161 457.557C866.72 472.947 906.187 475.315 940.701 464.76C963.417 457.774 985.162 442.944 998.513 425.197C1009.37 410.97 1013.56 396.339 1010.45 383.593C1005.91 364.838 985.872 350.707 956.782 346.279C934.966 342.783 911.077 344.489 887.715 346.246C883.762 346.573 880.162 346.698 876.21 347.024C836.953 349.609 786.305 350.634 745.573 334.993C704.143 319.05 680.528 286.491 685.37 251.724C688.125 231.788 702.393 210.371 723.447 194.536C741.405 180.988 762.107 173.574 781.24 173.526C809.149 173.378 829.891 187.107 849.935 200.533C853.159 202.721 856.646 204.933 859.87 207.121C881.837 221.202 915.219 234.731 948.808 220.329C989.625 202.862 997.818 158.316 999.274 145.067C1000.05 138.33 1000.38 131.316 1000.8 124.78C1001.99 103.99 1003.35 82.7468 1015.24 62.5108C1031.68 34.9598 1068.6 12.1875 1109.41 4.34864C1142.21 -1.90737 1177.02 0.484831 1216.05 11.5004C1277.56 29.1302 1328.47 61.013 1363.56 103.83L1364.62 103.226C1329.62 60.1835 1278.53 28.0494 1216.93 10.6458C1177.74 -0.621208 1142.57 -2.81237 1109.77 3.44364C1068.7 11.2574 1031.33 34.4569 1014.54 62.2091C1002.3 82.6461 1001.11 104.14 999.925 124.931C999.415 131.693 999.168 138.481 998.395 145.218C997.029 158.24 989.106 202.108 948.905 219.399C915.67 233.599 882.904 219.895 861.373 206.09C858.149 203.903 854.925 201.715 851.347 199.729C831.041 186.277 810.036 172.523 781.863 172.646C762.205 172.644 741.413 180.284 723.101 194.033C701.694 210.069 687.336 231.713 684.401 252.101C679.468 287.095 703.339 320.382 745.032 336.35C786.027 352.017 836.676 350.992 876.195 348.432C880.148 348.106 883.747 347.981 887.7 347.654C910.8 345.872 934.688 344.165 956.504 347.662C984.978 352.266 1004.93 365.919 1009.3 384.422C1012.33 396.691 1008.23 411.095 997.724 425.122C984.463 442.643 963.161 457.045 940.708 464.056C906.458 474.636 867.343 472.068 826.958 456.929C812.273 451.296 798.303 444.557 784.505 438.069C767.04 429.822 749.229 421.071 729.9 414.759C706.198 407.089 659.351 397.203 613.153 417.209C602.573 421.834 592.857 427.715 583.232 433.371C572.103 440.056 560.712 446.717 548.464 451.417C506.346 467.351 463.819 455.53 431.211 443.485C428.416 442.277 425.267 441.272 422.208 440.039C389.954 427.793 356.564 414.968 317.714 420.645C283.523 425.594 247.786 444.017 208.466 477.599C198.991 485.617 189.952 493.912 180.913 502.207C160.355 520.909 139.354 540.037 114.881 555.546C84.5767 574.724 36.4702 592.668 0.713765 579.616L0 580.722C6.12468 582.483 12.4296 583.791 18.742 584.395Z" fill="#2424FF" />
</svg>
