<svg width="119" height="97" viewBox="0 0 119 97" fill="none" xmlns="http://www.w3.org/2000/svg">
	<path fill-rule="evenodd" clip-rule="evenodd" d="M15.901 20.3374C15.9031 19.2039 16.0702 18.344 15.0095 18.032C13.8992 17.7055 13.6897 18.5613 13.3203 19.2644C13.1376 19.6116 12.9809 20.101 12.4397 20.0358C11.8793 19.9691 11.6951 19.5495 11.615 19.0429C11.5658 18.733 11.6077 18.3212 11.2145 18.2136C10.7576 18.0889 10.5766 18.4966 10.3458 18.7843C8.39474 21.2144 6.8493 23.895 5.58843 26.7313C4.80873 28.4863 4.11336 30.2956 3.90434 32.2301C3.61512 34.9102 5.64534 36.3987 8.12104 35.336C9.58421 34.7079 10.7607 33.6871 11.632 32.3838C14.1377 28.6358 15.3106 24.4114 15.901 20.3374ZM20.1466 19.2101C19.7493 26.1658 17.9384 32.6963 14.2168 38.6421C13.2312 40.2165 11.8374 41.408 10.3385 42.4702C9.41343 43.1263 8.34554 42.7848 7.33043 42.8407C7.01896 42.8577 6.10991 41.9678 6.3148 43.3053C6.32722 43.3886 5.80052 43.3151 5.5501 43.2008C3.88929 42.4402 2.52184 41.3873 1.68884 39.6825C-0.688032 34.8176 -0.433477 29.9681 1.68626 25.1191C3.54574 20.8662 5.91538 16.977 9.4631 13.868C11.2569 12.2962 13.4992 11.9682 15.635 11.5062C17.4402 11.1155 19.2588 12.8224 19.7275 14.8547C20.0566 16.2811 20.1104 17.7386 20.1466 19.2101Z" fill="#7975FF" />
	<path fill-rule="evenodd" clip-rule="evenodd" d="M106.422 12.8535C105.364 16.3143 105.478 19.46 107.092 22.4572C108.287 24.6763 109.886 24.7787 111.514 22.8204C112.704 21.3893 113.406 19.6975 113.96 17.9394C114.791 15.2997 113.845 13.4811 111.265 12.5332C110.227 12.1519 109.627 12.3977 109.429 13.4438C109.257 14.3493 108.918 15.1911 107.922 15.1486C106.808 15.1005 106.893 13.9974 106.678 13.2131C106.666 13.1712 106.625 13.1365 106.422 12.8535ZM102.142 20.0183C102.061 14.4595 103.548 9.98977 106.447 5.97588C107.082 5.09477 107.796 4.27368 108.737 3.70559C110.059 2.90726 111.516 3.34083 111.92 4.78744C112.147 5.60077 112.544 5.77306 113.256 5.89517C116.458 6.44463 118.885 8.77649 118.986 11.9662C119.194 18.5758 117.138 24.5464 112.624 29.3928C109.346 32.9126 105.751 32.0749 103.689 27.6761C102.466 25.0659 102.144 22.2741 102.142 20.0183Z" fill="#7975FF" />
	<path fill-rule="evenodd" clip-rule="evenodd" d="M70.2938 31.3327C70.3595 32.4575 70.6156 33.7551 71.8092 34.3258C72.905 34.8499 73.7701 33.8896 74.4686 33.1674C77.3437 30.196 79.1313 26.6126 80.1303 22.6277C80.3901 21.5934 79.7459 21.0864 78.8405 20.7816C77.9837 20.4929 77.4223 20.6476 77.0731 21.5691C76.8496 22.1584 76.533 22.8719 75.7062 22.7549C74.986 22.653 75.1324 21.8966 74.926 21.418C74.8209 21.1754 74.9058 20.8059 74.5503 20.7475C74.2352 20.6957 74.0128 20.9653 73.8932 21.1966C72.2547 24.3661 70.6441 27.5485 70.2938 31.3327ZM84.7765 20.5586C84.539 25.6332 82.6189 30.2151 80.5354 34.7444C79.2999 37.4291 77.7348 39.8085 75.0035 41.2748C72.6003 42.5652 70.3683 42.13 69.0365 39.6911C66.9416 35.8531 66.12 31.7839 67.4145 27.4751C68.544 23.7147 70.2694 20.2699 72.8791 17.295C73.2786 16.8402 73.7866 16.374 74.2849 16.5122C75.3683 16.8122 75.7817 16.0429 76.1625 15.4412C77.1936 13.8088 78.6925 13.4182 80.4154 13.7136C82.3189 14.0401 83.8457 14.9615 84.4955 16.9354C84.8851 18.1181 84.9513 19.3257 84.7765 20.5586Z" fill="#7975FF" />
	<path fill-rule="evenodd" clip-rule="evenodd" d="M103.561 47.1759C103.141 47.5924 103.122 48.0275 103.042 48.4373C102.951 48.9014 102.617 49.1637 102.24 48.9402C101.309 48.3881 100.859 49.054 100.347 49.5776C98.9646 50.9895 97.7182 52.5463 96.7926 54.2651C95.7889 56.1277 94.7262 58.0513 94.9978 60.3372C95.1665 61.7584 95.2979 63.3194 96.8733 63.7897C98.4876 64.2714 99.7076 63.2154 100.766 62.0875C100.829 62.0197 100.871 61.9317 100.931 61.8598C103.238 59.0737 104.268 55.6957 105.094 52.2944C105.54 50.4592 105.047 48.6096 103.561 47.1759ZM109.663 48.6437C109.563 53.0229 108.111 57.0279 106.476 61.0305C105.347 63.7928 103.836 66.2354 101.908 68.4674C100.219 70.4205 96.7595 71.2007 94.3847 69.8059C93.4953 69.2833 93.3375 68.1274 92.3664 67.7342C93.4953 66.5075 91.791 65.9953 91.6896 65.0619C91.2762 61.2752 91.3942 57.6348 93.1714 54.0804C94.9109 50.5999 97.1869 47.6695 100.284 45.3567C100.629 45.0991 100.719 44.8145 100.757 44.4141C100.81 43.8605 100.883 43.282 101.094 42.775C102.304 39.8574 104.328 39.382 106.69 41.4769C108.829 43.3741 109.74 45.8136 109.663 48.6437Z" fill="#7975FF" />
	<path fill-rule="evenodd" clip-rule="evenodd" d="M28.7744 51.3392C28.8313 52.0584 28.716 52.8836 29.4491 53.2432C30.1321 53.578 30.6789 52.9711 31.1886 52.5804C31.902 52.033 32.4877 51.348 32.9632 50.5895C34.8537 47.5726 36.0996 44.3116 36.646 40.783C36.7841 39.8879 36.8022 38.7786 35.9216 38.61C34.9914 38.432 33.656 38.2147 33.0868 39.6075C32.9285 39.9955 32.7304 40.382 32.4784 40.7152C30.102 43.8671 29.5562 47.642 28.7744 51.3392ZM40.2947 40.1337C39.9858 44.9997 38.5516 49.8957 35.9191 54.4379C35.5901 55.0044 35.1912 55.5301 34.8611 56.0961C33.5257 58.3845 31.4179 59.2894 28.8951 59.3515C28.0238 59.3727 27.538 58.6825 27.1448 57.9561C25.7219 55.3272 25.3593 52.5209 25.9403 49.637C27.092 43.923 29.2345 38.597 32.4656 33.7232C33.043 32.8514 33.7849 32.1364 34.5449 31.4519C35.4038 30.6789 36.1349 30.9713 36.4256 32.1074C36.525 32.497 36.4965 32.9492 37.0398 33.0982C39.2066 33.6932 39.4958 35.6552 40.0334 37.3781C40.2647 38.121 40.1948 38.9576 40.2947 40.1337Z" fill="#7975FF" />
	<path fill-rule="evenodd" clip-rule="evenodd" d="M49.4134 74.0115C50.5671 72.9861 50.9614 71.7459 51.5781 70.6107C52.7112 68.5226 53.2239 66.3051 53.5359 64.0037C53.5876 63.6208 53.5664 63.2111 53.1127 63.076C52.6693 62.9441 52.4385 63.313 52.2409 63.6079C52.0619 63.8759 52.0484 64.3643 51.8244 64.473C51.0674 64.8414 51.5807 66.7009 49.9618 66.037C49.7548 65.9527 49.5624 66.3263 49.8086 66.5089C50.8838 67.3041 50.1982 68.1754 49.9049 68.9789C49.3301 70.5554 48.9172 72.1272 49.4134 74.0115ZM48.2947 80.3278C49.8386 79.606 49.2053 78.8574 48.3113 78.5169C46.2681 77.7378 46.1403 75.8571 45.7657 74.2257C45.5262 73.1827 45.728 71.9622 46.0017 70.8901C47.2398 66.0381 49.4697 61.616 52.1524 57.4189C52.5937 56.7277 53.3708 56.2771 53.8132 55.5372C54.0046 55.218 54.3751 55.0115 54.791 55.1523C55.2018 55.2914 55.3219 55.5817 55.2763 56.0329C55.192 56.8741 55.5583 57.509 56.1771 58.1179C57.8814 59.7932 57.722 62.0444 57.542 64.0994C57.0831 69.3473 55.3136 74.2113 52.4488 78.6323C51.5765 79.9791 50.3596 81.0128 48.2947 80.3278Z" fill="#7975FF" />
	<path fill-rule="evenodd" clip-rule="evenodd" d="M45.0994 11.3056C44.9892 10.9228 44.879 10.5394 44.7186 9.98061C43.4914 11.5343 42.6651 13.1449 42.1643 14.8984C41.8327 16.0599 42.7381 17.0647 43.9519 17.0005C45.175 16.9364 46.0799 16.2575 46.7354 15.2931C48.4645 12.7486 49.2349 9.81556 49.6788 6.85094C49.8108 5.96724 49.7052 4.77156 49.1558 3.79628C48.6808 2.9545 49.6416 0.832692 50.6334 0.513464C51.8751 0.113524 52.4644 1.01119 52.8872 1.91662C53.7207 3.70005 53.4294 5.63559 53.2586 7.47128C52.8716 11.6223 51.6227 15.5461 49.4802 19.1513C48.5266 20.7562 47.4323 22.2313 45.4011 22.5231C41.9403 23.0193 40.5211 22.6556 39.6219 19.1787C38.4365 14.5973 40.9495 8.24115 44.8558 5.49331C45.2883 5.18857 45.7255 4.93143 46.2879 5.14925C46.9294 5.39708 46.8363 5.98638 46.858 6.46859C46.9388 8.26392 46.1347 9.79435 45.4544 11.3569C45.3359 11.3398 45.2179 11.3227 45.0994 11.3056Z" fill="#7975FF" />
	<path fill-rule="evenodd" clip-rule="evenodd" d="M69.0402 96.5173C67.9325 96.6131 67.1222 96.1784 67.0731 95.1209C66.9872 93.2526 66.5712 91.5111 67.1155 89.4659C68.0313 86.0247 69.4381 82.9287 71.3726 80.0505C72.2268 78.7803 71.8786 77.3683 72.4177 76.0987C72.8668 75.0411 73.3956 74.0762 74.227 73.2856C74.7656 72.7734 75.3389 72.3895 76.1067 72.8308C76.8274 73.2448 77.1285 73.7001 77.1735 74.6971C77.455 80.9347 75.0936 86.4956 72.9904 92.1351C72.5248 93.382 71.7818 94.4555 71.0073 95.5234C70.4873 96.2395 69.8587 96.6037 69.0402 96.5173Z" fill="#7975FF" />
</svg>
