<svg width="1440" height="587" viewBox="0 0 1440 587" fill="none" xmlns="http://www.w3.org/2000/svg">
	<path d="M19.7772 586.58C54.7478 589.763 95.2033 574.349 122.242 557.951C148.067 542.384 170.6 522.982 192.016 504.186C201.459 496.087 211.093 487.534 220.996 479.712C262.02 446.434 299.454 427.916 335.256 422.924C375.879 417.427 410.93 430.048 444.966 442.34C448.194 443.577 451.239 444.562 454.467 445.798C488.78 458.116 534.211 470.031 579.306 453.861C592.508 449.169 604.624 442.257 616.367 435.546C626.524 429.869 636.776 423.966 647.568 419.526C695.667 399.622 744.547 409.493 769.559 417.192C789.955 423.528 808.845 432.085 826.997 440.338C841.557 446.85 856.299 453.614 871.795 459.268C914.594 474.715 956.241 477.092 992.661 466.498C1016.63 459.485 1039.58 444.6 1053.67 426.787C1065.12 412.506 1069.55 397.82 1066.26 385.027C1061.47 366.202 1040.33 352.018 1009.63 347.574C986.61 344.064 961.401 345.777 936.748 347.541C932.577 347.868 928.779 347.994 924.608 348.322C883.183 350.916 829.737 351.945 786.756 336.245C743.037 320.242 718.117 287.562 723.227 252.665C726.135 232.655 741.19 211.158 763.407 195.263C782.358 181.664 804.203 174.223 824.392 174.174C853.843 174.026 875.731 187.806 896.881 201.283C900.284 203.479 903.963 205.7 907.365 207.895C930.546 222.029 965.772 235.608 1001.22 221.153C1044.29 203.62 1052.93 158.908 1054.47 145.61C1055.29 138.847 1055.64 131.807 1056.08 125.246C1057.33 104.378 1058.78 83.0562 1071.32 62.7445C1088.66 35.0905 1127.63 12.2331 1170.68 4.3649C1205.3 -1.9145 1242.04 0.486643 1283.22 11.5434C1348.12 29.2391 1401.85 61.2411 1438.88 104.218L1440 103.612C1403.07 60.4085 1349.15 28.1542 1284.15 10.6856C1242.79 -0.62353 1205.68 -2.82288 1171.07 3.45652C1127.73 11.2995 1088.3 34.5857 1070.58 62.4416C1057.66 82.9551 1056.41 104.53 1055.16 125.398C1054.62 132.185 1054.36 138.998 1053.54 145.761C1052.1 158.832 1043.74 202.863 1001.32 220.219C966.247 234.473 931.672 220.717 908.951 206.861C905.549 204.665 902.147 202.469 898.372 200.476C876.944 186.973 854.779 173.168 825.05 173.291C804.306 173.289 782.365 180.958 763.042 194.758C740.453 210.855 725.302 232.579 722.204 253.043C716.999 288.168 742.188 321.58 786.185 337.608C829.444 353.333 882.89 352.304 924.592 349.735C928.763 349.407 932.561 349.281 936.732 348.954C961.108 347.165 986.317 345.452 1009.34 348.962C1039.38 353.583 1060.44 367.287 1065.05 385.859C1068.25 398.173 1063.92 412.632 1052.83 426.711C1038.84 444.297 1016.36 458.754 992.669 465.791C956.526 476.411 915.252 473.832 872.635 458.637C857.14 452.983 842.397 446.219 827.838 439.707C809.408 431.428 790.613 422.645 770.217 416.309C745.206 408.61 695.77 398.688 647.021 418.769C635.856 423.411 625.604 429.314 615.447 434.991C603.704 441.701 591.683 448.387 578.758 453.104C534.314 469.098 489.438 457.233 455.03 445.142C452.08 443.931 448.757 442.921 445.529 441.684C411.493 429.392 376.26 416.519 335.264 422.217C299.184 427.184 261.473 445.677 219.981 479.384C209.983 487.432 200.444 495.759 190.906 504.085C169.213 522.856 147.051 542.056 121.226 557.622C89.2484 576.872 38.4847 594.883 0.753191 581.783L0 582.893C6.46298 584.66 13.1162 585.973 19.7772 586.58Z" fill="#D1D1FF" />
</svg>
