<svg width="371" height="266" viewBox="0 0 371 266" fill="none" xmlns="http://www.w3.org/2000/svg">
	<path fill-rule="evenodd" clip-rule="evenodd" d="M69.1623 226.964C66.5839 229 64.325 231.252 62.389 233.996C60.9941 235.978 59.0277 237.682 56.784 239.107C54.3205 240.669 52.4691 243.217 49.916 244.851C48.3385 245.858 47.253 248.315 44.8031 246.411C43.7041 247.034 42.6051 247.656 41.2237 248.439C40.3732 247.404 39.538 246.41 38.7365 245.394C38.5658 245.177 38.439 244.639 38.4051 244.65C35.639 245.436 34.1122 242.144 31.3664 242.578C29.8734 242.815 27.5959 241.178 27.7616 239.949C28.0964 237.465 26.4377 236.395 25.0276 234.938C24.4815 231.845 25.31 228.988 26.7066 226.156C28.0845 223.359 28.9756 220.307 30.4736 217.585C33.512 212.06 36.7921 206.669 40.0148 201.247C43.3406 195.65 46.8946 190.215 50.6668 184.899C54.1092 180.044 57.4282 175.099 60.8639 170.234C62.9571 167.271 65.0013 164.269 67.0437 161.268C67.1317 161.14 66.9694 160.846 66.8206 160.149C65.774 160.994 64.9708 162.142 64.0071 162.296C62.7407 162.501 61.6924 162.445 61.547 164.026C59.3794 163.304 59.0581 166.68 56.9514 166.095C56.358 167.421 55.0577 168.314 53.9604 168.667C52.672 169.085 51.5544 169.078 51.103 170.681C50.9762 171.134 49.7487 171.731 49.2871 171.558C47.2683 170.803 47.3088 173.417 45.9545 173.445C44.3161 173.479 43.4437 174.179 43.3135 175.806C41.2135 176.215 40.0165 178.037 38.2885 179.05C36.7989 179.921 35.0861 180.902 34.2931 182.3C33.7859 183.198 33.3818 183.521 32.5685 183.795C29.9157 184.692 28.1657 186.955 25.7749 188.316C23.3639 189.687 21.3586 191.765 19.1504 193.505C16.3758 195.693 13.5877 197.865 10.7878 200.023C9.10711 201.318 7.25908 200.677 5.79485 199.877C4.684 199.27 4.01614 198.231 2.58404 199.218C2.39298 199.348 1.46135 198.41 0.578762 197.742C1.40725 197.165 2.12922 196.665 2.85457 196.163C2.73452 195.96 2.61616 195.755 2.49443 195.552C1.7826 195.814 1.07247 196.077 0.257511 196.376C0.193261 196.109 -0.0907916 195.63 0.0292546 195.297C0.31838 194.501 0.649775 193.632 1.22295 193.042C4.43376 189.733 7.56849 186.329 11.0126 183.277C16.8087 178.141 22.718 173.116 28.7744 168.288C32.9168 164.985 37.1472 161.772 41.3674 158.573C45.1649 155.694 49.1315 152.941 53.0051 150.156C57.9727 146.585 63.04 143.202 68.1732 139.902C71.4364 137.803 74.7825 135.837 78.0965 133.818C80.2894 132.484 82.7275 132.978 85.0879 132.882C86.7313 133.773 87.6139 135.45 89.8914 135.883C92.4851 136.378 97.2954 143.391 97.6724 146.278C97.9514 148.415 96.7865 150.456 96.1338 152.512C94.9925 156.113 93.3897 159.451 90.9194 162.344C90.654 162.656 90.309 163.194 90.4105 163.481C91.2593 165.865 88.4255 166.689 88.3004 168.63C85.8639 170.049 84.7446 172.585 83.135 174.707C82.8594 175.07 82.2051 175.364 82.2068 175.689C82.2406 179.94 78.8438 182.324 76.9399 185.509C76.3465 186.503 75.5197 187.374 75.0378 188.412C74.7047 189.126 74.7825 190.027 74.6777 190.844C75.3405 190.925 75.7581 191.106 75.9069 190.975C79.0788 188.214 82.0732 185.223 85.404 182.677C89.7426 179.363 93.5182 175.38 98.1932 172.449C100.427 171.048 102.101 168.835 104.317 167.225C108.404 164.259 111.89 160.443 116.053 157.608C123.207 152.738 129.19 146.33 136.814 142.117C138.798 138.962 142.509 137.805 144.922 135.124C145.571 134.4 146.614 134.04 147.437 133.46C148.635 132.618 149.815 131.752 150.97 130.854C155.623 127.239 160.252 123.594 164.912 119.989C166.88 118.469 168.954 117.083 170.894 115.527C176.37 111.136 182.166 107.188 187.837 103.066C190.788 100.922 193.373 98.2964 196.847 96.9269C199.275 93.3813 203.239 91.7361 206.488 89.2152C210.418 86.1684 214.462 83.2686 218.476 80.3301C223.66 76.5342 228.854 72.7536 234.06 68.9882C237.366 66.5991 240.69 64.2337 244.026 61.8852C248.07 59.0379 252.209 56.3327 256.203 53.4008C262.274 48.9456 268.63 44.8759 274.886 40.6742C282.696 35.4277 290.5 30.1727 298.359 24.9989C302.689 22.1483 307.104 19.4227 311.515 16.6988C316.77 13.4542 322.005 10.1656 327.361 7.09176C331.223 4.87682 335.203 2.89184 338.864 0.306617C339.758 -0.324048 341.476 0.213623 343.349 0.213623C342.856 0.981242 342.638 1.55949 342.227 1.91625C340.991 2.99159 339.677 3.9824 338.16 5.193C341.447 6.72317 343.586 2.25779 346.315 3.90293C345.465 4.7534 344.547 5.66981 343.628 6.58621C343.801 6.85843 343.972 7.13065 344.144 7.40287C345.12 7.1205 346.094 6.83814 347.389 6.46279C347.608 8.16034 347.823 9.81901 348.116 12.0999C346.964 13.0163 345.468 15.0283 343.59 15.4916C341.31 16.053 340.598 18.8647 337.981 18.6314C337.3 18.5705 337.758 20.941 336.067 20.3679C334.255 19.7507 335.303 22.6859 333.68 22.2243C332.165 21.7932 332.07 23.8069 331.696 23.7934C329.336 23.7156 328.692 26.0371 326.996 26.8453C325.189 27.7076 323.471 28.8438 321.898 30.0916C320.495 31.2041 319.129 32.1408 317.304 32.4215C316.66 32.5196 315.641 33.1773 315.602 33.6456C315.473 35.2113 314.505 34.9746 313.47 35.2214C312.726 35.399 312.261 36.6671 311.503 36.9021C310.621 37.1743 309.615 36.9275 309.868 38.3596C306.72 38.5354 305.942 42.9196 302.449 42.5493C302.109 42.5138 301.565 42.879 301.376 43.2071C299.161 47.0435 295.042 48.4925 291.74 50.9576C286.928 54.5489 282.124 58.152 277.29 61.7094C273.412 64.5634 269.548 67.4428 265.565 70.1481C263.448 71.5853 261.912 74.1621 258.817 73.8966C258.604 73.878 258.23 74.1959 258.145 74.4343C256.453 79.2091 250.953 78.9926 248.031 82.1578C247.542 82.6887 246.706 82.9406 246.317 83.5155C242.856 88.642 237.071 90.9989 232.672 95.0213C229.443 97.9735 225.667 100.325 222.186 103.009C217.864 106.338 213.605 109.746 209.295 113.087C208.861 113.424 208.265 113.563 207.731 113.752C203.36 115.297 200.303 118.792 196.57 121.289C195.748 121.841 194.972 122.767 194.643 123.687C193.892 125.784 191.944 126.835 190.358 127.17C188.667 127.523 187.722 128.374 186.603 129.336C184.4 131.23 181.783 132.702 180.472 135.482C176.477 137.978 172.982 141.178 169.362 144.12C166.381 146.545 162.854 148.422 160.487 151.685C158.931 153.825 156.367 154.94 153.95 155.834C152.943 156.208 151.979 156.424 151.325 157.275C150.618 158.191 150.204 159.49 149.302 160.061C148.313 160.687 147.771 161.469 147.059 162.308C145.059 164.665 142.849 166.944 139.376 167.027C139.099 167.034 138.772 167.107 138.561 167.269C137.041 168.442 135.411 169.512 134.082 170.879C132.535 172.465 130.442 173.636 129.787 175.997C129.716 176.254 129.387 176.453 129.153 176.651C127.221 178.286 125.307 179.946 123.337 181.534C121.364 183.123 119.876 185.159 117.627 186.583C115.569 187.883 113.642 189.57 111.586 190.997C110.37 191.75 108.521 192.232 108.061 193.307C106.669 196.562 102.427 196.655 101.255 199.942C98.0799 200.75 96.6732 203.929 93.9764 205.384C93.224 205.79 92.1672 206.059 91.8138 206.701C89.9117 210.171 85.7084 211.26 83.7809 214.652C81.0486 215.267 79.7027 217.463 77.9832 219.376C76.6914 220.813 74.6794 221.601 72.9886 222.676C72.9023 225.168 70.2495 225.368 69.1623 226.964Z" fill="#D1D1FF" />
	<path fill-rule="evenodd" clip-rule="evenodd" d="M365.204 53.5812C366.682 53.2549 368.16 52.9285 370.321 52.45C369.492 53.3918 369.213 53.7114 368.843 54.1324C369.398 54.3184 369.92 54.4942 370.463 54.6751C370.84 56.1377 371.367 57.8572 369.682 58.635C368.819 59.0323 367.457 58.3475 366.192 58.6569C366.762 58.9342 367.333 59.2115 367.972 59.5209C366.073 61.8153 363.536 62.1907 360.756 61.7849C360.651 62.823 360.577 63.5501 360.472 64.5747C358.475 62.8636 356.948 64.9805 354.725 64.8165C355.214 65.7735 355.526 66.3889 355.841 67.0044C355.12 67.4744 354.341 68.1676 353.43 68.5345C352.128 69.0587 351.194 71.3548 349.302 69.5304C349.213 69.4459 348.832 69.5456 348.677 69.6707C348.318 69.9565 348.072 70.4451 347.679 70.6108C346.239 71.2161 344.507 71.4173 343.368 72.3557C342.358 73.1876 342.106 74.8784 341.293 76.0332C340.821 76.7027 339.959 77.1779 339.176 77.5278C338.344 77.9015 335.267 79.43 334.85 80.4343C334.393 81.5266 333.68 81.0717 333.046 81.2645C332.234 81.5114 331.346 81.721 330.694 82.2181C330.198 82.5951 330.021 83.3932 329.725 83.9613C328.942 83.2698 328.179 82.5935 326.845 81.4133C327.038 83.2241 325.322 83.493 326.108 85.2548C326.575 86.3014 323.692 87.8924 321.942 87.1924C320.745 86.7122 320.838 87.7538 320.275 87.9059C321.22 90.694 318.73 90.88 317.272 91.7981C316.552 92.253 314.33 93.7578 314.017 94.1466C313.742 94.4831 313.388 94.7553 313.098 95.0292C312.722 94.7249 312.406 94.3749 312.015 94.1855C311.791 94.0773 311.441 94.2295 310.959 94.287C311.243 94.8973 311.501 95.457 311.743 95.9778C311.598 96.299 311.554 96.6693 311.351 96.7995C309.78 97.8089 308.071 98.634 306.608 99.777C303.102 102.516 299.717 105.409 296.266 108.221C291.981 111.709 287.602 115.07 283.632 118.942C281.776 120.755 280.629 122.065 280.058 124.733C278.283 123.812 276.269 123.854 274.728 122.266C273.369 120.865 272.052 122.53 270.523 123.11C269.773 119.804 272.588 119.211 273.893 117.669C273.457 117.234 273.022 116.8 272.623 116.399C271.712 117.057 270.806 117.708 269.681 118.518C269.489 117.715 269.176 117.195 269.323 116.906C270.987 113.628 273.719 111.273 276.44 108.926C277.211 108.263 278.159 107.801 278.906 107.117C284.89 101.628 291.513 96.9922 298.065 92.2208C304.182 87.7673 310.641 83.8446 316.738 79.3894C318.503 78.101 320.912 77.8356 322.194 75.8421C328.12 73.8352 332.121 68.5126 338.236 66.8015C339.07 68.0763 338.062 68.2116 336.934 68.5481C336.263 68.7493 336.518 69.7637 335.465 70.32C331.023 72.6702 326.85 75.531 322.595 78.2295C322.312 78.4087 322.15 78.779 321.381 79.7698C322.7 79.3083 323.18 79.0479 323.684 78.9785C325.494 78.7385 326.267 76.8143 328.227 76.4948C329.787 76.2395 331.272 74.8598 332.559 73.7185C335.308 71.2804 338.765 70.1036 341.839 68.2505C343.916 66.9993 345.681 65.2629 348.134 64.5223C349.086 64.2348 349.686 62.796 350.447 61.8813C352.026 60.9598 353.641 60.0924 355.173 59.0982C356.58 58.1886 358.265 58.0584 359.52 56.4572C360.751 54.8848 363.503 55.0116 365.204 53.5812Z" fill="#D1D1FF" />
	<path fill-rule="evenodd" clip-rule="evenodd" d="M173.375 178.085C174.816 177.107 176.941 176.428 177.528 175.078C178.353 173.181 179.905 172.634 181.241 171.645C182.627 170.618 184.179 169.822 185.606 168.851C187.057 167.866 188.599 166.942 189.827 165.72C192.471 163.089 195.465 160.947 198.561 158.92C199.266 158.455 200.124 158.223 200.849 157.78C201.571 157.337 202.53 156.906 202.834 156.224C204.345 152.843 207.587 151.58 210.419 149.877C212.05 148.897 213.134 149.4 214.889 151.225C214.277 153.474 211.459 154.094 210.95 156.524C210.87 156.899 209.391 156.985 208.557 157.197C207.284 157.523 208.16 159.873 206.427 159.601C204.9 159.361 204.937 160.528 204.357 161.268C204.178 161.498 203.13 161.052 202.298 160.878C201.818 161.833 201.202 163.05 200.595 164.256H199.057C197.99 165.542 197.18 167.431 196.093 167.61C194.458 167.879 194.863 170.54 192.863 169.824C192.615 169.736 192.072 170.104 191.844 170.398C191.409 170.961 191.213 172.044 190.728 172.167C188.832 172.652 188.134 174.774 186.47 175.258C183.298 176.179 181.185 178.732 178.334 180.114C177.763 180.389 177.151 181.247 177.127 181.859C177.048 183.767 176.047 184.156 174.376 184.692C173.106 185.1 171.891 186.726 171.345 188.089C170.612 189.907 168.284 188.177 167.789 190.157C167.542 191.148 166.989 192.671 165.493 191.041C165.058 191.476 164.236 191.927 164.252 192.343C164.345 194.555 162.522 193.391 161.66 193.938C160.994 194.534 163.114 194.993 161.631 195.951C159.392 197.397 157.627 199.578 155.368 200.973C154.545 201.482 154.122 201.791 153.82 202.649C153.639 203.157 152.871 203.922 152.555 203.841C149.897 203.159 148.696 205.132 147.153 206.541C147.095 206.593 146.519 206.077 146.071 205.741C145.362 206.739 146.287 208.932 143.982 208.906C143.661 208.903 143.225 209.457 143.022 209.848C141.083 213.556 141.115 213.588 137.835 215.909C137.243 216.329 137.552 218.86 135.786 216.861C135.764 216.836 134.756 217.382 134.685 217.752C134.081 220.896 131.263 222.16 129.364 224.198C126.882 223.832 126.192 226.211 124.64 227.27C123.62 227.965 122.479 228.208 122.498 230.063C122.511 231.363 120.795 231.96 119.101 231.362C119.731 230.362 120.35 229.382 121.145 228.122C120.455 228.174 120.151 228.107 120.039 228.223C119.442 228.844 118.747 229.221 118.179 228.393C117.987 228.11 118.291 227.092 118.636 226.903C120.891 225.67 121.892 223.469 123.12 221.432C124.953 221.572 124.953 221.572 125.615 223.011C125.724 223.078 125.927 223.209 125.928 223.205C126.779 221.947 129.371 222.39 129.027 219.551C128.02 220.008 127.485 220.846 126.265 221.844C126.559 220.718 126.561 219.996 126.909 219.545C127.448 218.846 128.185 218.277 128.912 217.754C130.316 216.745 131.386 215.377 131.79 213.806C132.127 212.504 132.446 211.688 133.809 211.221C134.514 210.979 134.986 210.056 135.564 209.44C137.686 209.904 138.232 207.182 140.127 207.183C140.023 204.743 142.424 204.5 143.712 203.834C145.47 202.924 145.778 200.963 147.567 200.116C149.633 199.14 151.408 197.476 153.17 195.95C156.45 193.102 159.621 190.13 162.864 187.239C163.278 186.868 163.9 186.735 164.324 186.371C165.466 185.397 166.504 184.297 167.674 183.36C168.614 182.606 169.497 181.525 170.317 181.03C171.651 180.224 172.658 179.395 173.375 178.085Z" fill="#D1D1FF" />
	<path fill-rule="evenodd" clip-rule="evenodd" d="M109.741 234.342C111.469 234.758 112.022 233.169 113.077 232.416C113.958 231.787 114.303 230.122 116.315 230.983C115.444 231.461 114.714 231.864 113.371 232.604C114.962 233.536 115.711 233.977 116.378 234.368C115.06 236.413 112.421 237.127 113.875 240.651C112.678 239.553 112.359 239.257 111.86 238.801C111.746 242.032 110.057 243.724 106.786 243.838C107.195 244.245 107.411 244.462 107.897 244.949C105.614 247.231 103.232 249.443 101.052 251.84C98.9489 254.152 96.1456 255.829 94.7794 258.86C94.5647 259.341 93.2036 259.305 92.2195 259.543C92.5222 259.924 92.764 260.23 93.0159 260.546C92.4089 261.99 90.7908 262.583 90.2024 264.31C89.5312 266.28 88.4727 266.033 86.4996 264.242C86.1209 263.897 85.054 264.311 84.0124 264.401C84.1223 264.029 84.1359 263.297 84.5028 262.871C85.1994 262.063 86.087 261.422 85.7624 260.164C86.9054 258.894 89.2843 258.46 88.608 255.947C88.5877 255.874 88.7957 255.658 88.9174 255.641C91.8087 255.229 92.4427 252.207 94.5106 250.731C96.8472 249.062 98.4078 246.33 100.411 244.159C103.473 240.842 106.627 237.611 109.741 234.342Z" fill="#D1D1FF" />
	<path fill-rule="evenodd" clip-rule="evenodd" d="M173.375 178.085C172.658 179.395 171.651 180.224 170.317 181.03C169.497 181.525 168.614 182.606 167.674 183.36C166.504 184.297 165.466 185.397 164.324 186.371C163.9 186.735 163.278 186.868 162.864 187.239C159.621 190.13 156.45 193.102 153.17 195.95C151.408 197.476 149.633 199.14 147.567 200.116C145.778 200.963 145.47 202.924 143.712 203.834C142.424 204.5 140.023 204.743 140.127 207.183C138.232 207.182 137.686 209.904 135.564 209.44C135.562 206.713 137.849 205.278 139.561 204.302C142.464 202.647 144.294 199.908 147.101 198.153C150.367 196.11 152.942 192.991 155.938 190.483C160.823 186.397 165.777 182.391 170.785 178.458C171.379 177.992 172.498 178.193 173.375 178.085Z" fill="#D1D1FF" />
	<path fill-rule="evenodd" clip-rule="evenodd" d="M109.741 234.342C106.627 237.611 103.473 240.842 100.411 244.159C98.4078 246.33 96.8472 249.062 94.5106 250.731C92.4427 252.207 91.8087 255.229 88.9174 255.641C88.7957 255.658 88.5877 255.874 88.608 255.947C89.2843 258.46 86.9054 258.894 85.7624 260.164C84.638 261.042 83.5156 261.919 82.2509 262.906C82.1917 262.365 81.9398 261.75 82.1275 261.552C87.3926 255.988 91.415 249.285 97.4714 244.49C98.5451 243.642 97.8789 241.81 99.8673 241.565C100.757 241.455 101.342 239.575 102.239 238.669C103.163 237.734 104.353 237.068 105.32 236.168C106.218 235.331 106.943 234.31 107.802 233.427C108.735 232.469 109.706 231.541 110.717 230.663C111.786 229.735 112.922 228.884 114.51 227.615C113.896 231.04 110.685 231.906 109.741 234.342Z" fill="#D1D1FF" />
	<path fill-rule="evenodd" clip-rule="evenodd" d="M69.1623 226.964C70.2495 225.368 72.9023 225.168 72.9886 222.676C74.6794 221.601 76.6914 220.813 77.9832 219.376C79.7027 217.463 81.0486 215.267 83.7809 214.652C85.7084 211.26 89.9117 210.171 91.8138 206.701C92.1672 206.059 93.224 205.79 93.9764 205.384C96.6732 203.929 98.0799 200.75 101.255 199.942C102.427 196.655 106.669 196.562 108.061 193.307C108.521 192.232 110.37 191.75 111.586 190.997C111.373 191.67 111.364 192.58 110.908 192.979C109.136 194.533 107.875 196.579 105.536 197.634C103.418 198.589 102.329 200.946 100.131 202.216C97.2226 203.896 94.8994 206.595 92.3345 208.866C89.5413 211.339 86.8867 213.992 83.9414 216.265C79.5893 219.624 75.3843 223.127 71.3754 226.964L69.1623 226.964Z" fill="#D1D1FF" />
	<path fill-rule="evenodd" clip-rule="evenodd" d="M365.204 53.5812C363.503 55.0116 360.751 54.8848 359.52 56.4572C358.265 58.0584 356.58 58.1886 355.173 59.0982C353.641 60.0924 352.026 60.9598 350.447 61.8813C347.791 62.2955 346.031 64.4139 343.692 65.4521C342.411 66.0219 341.266 66.9011 339.445 68.017C339.64 66.7692 339.52 65.934 339.864 65.633C341.056 64.5898 342.338 63.6024 343.718 62.8263C349.275 59.6983 354.887 56.6617 360.47 53.576C361.716 52.8878 362.881 52.039 364.165 51.4405C365.005 51.0482 365.992 50.9721 367.32 50.6577C366.366 51.9765 365.786 52.7797 365.204 53.5812Z" fill="#D1D1FF" />
</svg>
