<svg width="80" height="77" viewBox="0 0 80 77" fill="none" xmlns="http://www.w3.org/2000/svg">
	<path fill-rule="evenodd" clip-rule="evenodd" d="M79.9424 35.833C80.7729 46.7642 72.4704 55.9053 64.5236 63.4136C56.8744 70.6408 47.5827 76.1425 37.0866 76.3243C26.4208 76.509 15.7371 72.4289 8.68749 64.3808C1.9857 56.7298 2.21967 46.0093 1.61885 35.833C0.95836 24.6459 -3.18731 11.1744 5.10382 3.68267C13.3462 -3.76501 26.1297 2.11087 37.0866 3.7849C45.6432 5.09219 53.6861 6.97324 60.6302 12.1661C69.0964 18.4972 79.1389 25.2566 79.9424 35.833Z" fill="#020054" />
	<path d="M20.3125 13.625H33.4375V28.625H20.3125V13.625Z" fill="#2BAA4A" />
	<path d="M22.5372 55.0081L23.9219 53.6234C24.5997 52.9456 24.9597 52.0456 24.9756 51.125H12.8125V59.5625H22.1875V54.875L22.5372 55.0081Z" fill="#2BAA4A" />
	<path d="M25.9375 41.75H27.8125V43.625H25.9375V41.75Z" fill="white" />
	<path d="M29.6875 41.75H31.5625V43.625H29.6875V41.75Z" fill="white" />
	<path d="M22.1875 41.75H24.0625V43.625H22.1875V41.75Z" fill="white" />
	<path d="M20.3125 12.6875H33.4375V14.5625H20.3125V12.6875Z" fill="white" />
	<path d="M20.3125 16.4375H33.4375V18.3125H20.3125V16.4375Z" fill="white" />
	<path d="M20.3125 20.1875H33.4375V22.0625H20.3125V20.1875Z" fill="white" />
	<path d="M20.3125 23.9375H24.0625V25.8125H20.3125V23.9375Z" fill="white" />
	<path d="M25.9375 23.9375H33.4375V25.8125H25.9375V23.9375Z" fill="white" />
	<path d="M20.3125 27.6875H33.4375V29.5625H20.3125V27.6875Z" fill="white" />
	<path d="M12.8125 57.6875H14.6875V59.5625H12.8125V57.6875Z" fill="white" />
	<path d="M16.5625 57.6875H18.4375V59.5625H16.5625V57.6875Z" fill="white" />
	<path d="M20.3125 57.6875H22.1875V59.5625H20.3125V57.6875Z" fill="white" />
	<path d="M43.75 22.0625C44.2678 22.0625 44.6875 21.6428 44.6875 21.125C44.6875 20.6072 44.2678 20.1875 43.75 20.1875C43.2322 20.1875 42.8125 20.6072 42.8125 21.125C42.8125 21.6428 43.2322 22.0625 43.75 22.0625Z" fill="white" />
	<path d="M29.1663 55.3962C28.9263 55.3962 28.6862 55.4881 28.5034 55.6709C28.1369 56.0375 28.1369 56.6309 28.5034 56.9966C28.6862 57.1794 28.9263 57.2712 29.1663 57.2712C29.4063 57.2712 29.6462 57.1794 29.8291 56.9966C30.1956 56.63 30.1956 56.0366 29.8291 55.6709C29.6462 55.4881 29.4063 55.3962 29.1663 55.3962Z" fill="white" />
	<path d="M43.75 63.3125C44.2678 63.3125 44.6875 62.8928 44.6875 62.375C44.6875 61.8572 44.2678 61.4375 43.75 61.4375C43.2322 61.4375 42.8125 61.8572 42.8125 62.375C42.8125 62.8928 43.2322 63.3125 43.75 63.3125Z" fill="white" />
	<path d="M58.3337 55.3962C58.0937 55.3962 57.8537 55.4881 57.6709 55.6709C57.3044 56.0375 57.3044 56.6309 57.6709 56.9966C57.8537 57.1794 58.0937 57.2712 58.3337 57.2712C58.5737 57.2712 58.8137 57.1794 58.9966 56.9966C59.3631 56.63 59.3631 56.0366 58.9966 55.6709C58.8137 55.4881 58.5737 55.3962 58.3337 55.3962Z" fill="white" />
	<path d="M64.375 42.6875C64.8928 42.6875 65.3125 42.2678 65.3125 41.75C65.3125 41.2322 64.8928 40.8125 64.375 40.8125C63.8572 40.8125 63.4375 41.2322 63.4375 41.75C63.4375 42.2678 63.8572 42.6875 64.375 42.6875Z" fill="white" />
	<path d="M58.3337 26.2288C58.0937 26.2288 57.8537 26.3206 57.6709 26.5034C57.3044 26.87 57.3044 27.4634 57.6709 27.8291C57.8537 28.0119 58.0937 28.1038 58.3337 28.1038C58.5737 28.1038 58.8137 28.0119 58.9966 27.8291C59.3631 27.4625 59.3631 26.8691 58.9966 26.5034C58.8137 26.3197 58.5737 26.2288 58.3337 26.2288Z" fill="white" />
	<path d="M66.1666 48.3125H69.0625V35.1875H66.1666C65.0734 35.1875 64.0975 34.5341 63.6616 33.4766C63.2416 32.4641 63.4684 31.3109 64.2409 30.5394L66.2884 28.4919L57.0081 19.2116L54.9606 21.2591C54.1881 22.0316 53.0369 22.2594 51.9775 21.8197C50.9659 21.4016 50.3125 20.4256 50.3125 19.3334V16.4375H39.0625V10.8125C39.0625 9.77844 38.2216 8.9375 37.1875 8.9375H16.5625C15.5284 8.9375 14.6875 9.77844 14.6875 10.8125V25.0297L11.8937 26.6019C11.3041 26.9337 10.9375 27.56 10.9375 28.2359V46.4375C10.9375 47.4716 11.7784 48.3125 12.8125 48.3125H21.3334C22.4266 48.3125 23.4025 48.9659 23.8384 50.0234C23.8609 50.0778 23.8741 50.1331 23.8928 50.1875H12.8125V52.0625H23.8469C23.7147 52.3916 23.5206 52.6991 23.2591 52.9606L22.2822 53.9375H12.8125V55.8125H22.015L30.4919 64.2894L32.5394 62.2419C33.3119 61.4703 34.465 61.2425 35.5225 61.6812C36.5341 62.0984 37.1875 63.0744 37.1875 64.1666V67.0625H50.3125V64.1666C50.3125 63.0734 50.9659 62.0975 52.0244 61.6616C53.035 61.2406 54.1881 61.4684 54.9606 62.2409L57.0081 64.2884L66.2884 55.0081L64.2409 52.9606C63.4684 52.1881 63.2416 51.035 63.6803 49.9775C64.0984 48.9659 65.0744 48.3125 66.1666 48.3125ZM40.9375 29.2906V45.2178L30.2894 35.2803L40.9375 29.2906ZM39.0625 28.1938V27.1812L39.9625 27.6875L39.0625 28.1938ZM42.8125 46.4375V29.6C43.1247 29.5766 43.4378 29.5625 43.75 29.5625C50.47 29.5625 55.9375 35.03 55.9375 41.75C55.9375 48.47 50.47 53.9375 43.75 53.9375C39.5847 53.9375 35.7072 51.77 33.4863 48.3125H40.9375C41.9716 48.3125 42.8125 47.4716 42.8125 46.4375ZM31.3197 48.3125C33.7412 52.8847 38.5506 55.8125 43.75 55.8125C51.5041 55.8125 57.8125 49.5041 57.8125 41.75C57.8125 33.9959 51.5041 27.6875 43.75 27.6875C43.4134 27.6875 43.075 27.6997 42.7384 27.7241C42.6044 27.2553 42.2931 26.8475 41.8572 26.6019L40.9169 26.0731C41.8469 25.9053 42.7928 25.8125 43.75 25.8125C52.5381 25.8125 59.6875 32.9619 59.6875 41.75C59.6875 50.5381 52.5381 57.6875 43.75 57.6875C37.4584 57.6875 31.7828 53.9703 29.2253 48.3125H31.3197ZM37.1875 10.8125V29.2484L28.8138 33.9584C27.6784 33.1522 26.0716 33.1522 24.9363 33.9584L16.5625 29.2484V10.8125H37.1875ZM23.4606 35.2803L12.8125 45.2178V29.2906L23.4606 35.2803ZM14.6875 28.1938L13.7875 27.6875L14.6875 27.1812V28.1938ZM14.2534 46.4375L25.8925 35.5747C26.4269 35.075 27.3231 35.075 27.8584 35.5747L39.4975 46.4375H14.2534ZM62.9153 54.2863L63.6372 55.0081L57.0081 61.6372L56.2863 60.9153C54.9756 59.6047 53.0219 59.2175 51.2622 59.9478C49.5466 60.6556 48.4375 62.3112 48.4375 64.1666V65.1875H39.0625V64.1666C39.0625 62.3112 37.9534 60.6556 36.1956 59.93C34.4809 59.2175 32.5253 59.6038 31.2138 60.9153L30.4919 61.6372L23.8628 55.0081L24.5847 54.2863C25.8953 52.9756 26.2825 51.02 25.5522 49.2622C25.4097 48.9172 25.2203 48.6041 25.0075 48.3125H27.2012C29.8797 55.0653 36.4384 59.5625 43.75 59.5625C53.5722 59.5625 61.5625 51.5722 61.5625 41.75C61.5625 31.9278 53.5722 23.9375 43.75 23.9375C42.1544 23.9375 40.585 24.1597 39.0625 24.5741V18.3125H48.4375V19.3334C48.4375 21.1887 49.5466 22.8444 51.3044 23.57C53.0191 24.2825 54.9756 23.8944 56.2863 22.5847L57.0081 21.8628L63.6372 28.4919L62.9153 29.2138C61.6047 30.5244 61.2175 32.48 61.9478 34.2378C62.6556 35.9544 64.3112 37.0625 66.1666 37.0625H67.1875V46.4375H66.1666C64.3112 46.4375 62.6556 47.5466 61.93 49.3044C61.2175 51.02 61.6047 52.9756 62.9153 54.2863V54.2863Z" fill="white" />
</svg>
