<svg width="81" height="77" viewBox="0 0 81 77" fill="none" xmlns="http://www.w3.org/2000/svg">
	<path fill-rule="evenodd" clip-rule="evenodd" d="M80.2758 35.833C81.1063 46.7642 72.8037 55.9053 64.857 63.4136C57.2077 70.6408 47.916 76.1425 37.42 76.3243C26.7541 76.509 16.0704 72.4289 9.02087 64.3808C2.31908 56.7298 2.55305 46.0093 1.95223 35.833C1.29173 24.6459 -2.85394 11.1744 5.43719 3.68267C13.6796 -3.76501 26.463 2.11087 37.42 3.7849C45.9766 5.09219 54.0195 6.97324 60.9636 12.1661C69.4298 18.4972 79.4723 25.2566 80.2758 35.833Z" fill="#020054" />
	<g clip-path="url(#clip0_11_89)">
		<path d="M34.527 27.3549H40.3334V56.3871H34.527V27.3549Z" fill="#2BAA4A" />
		<path d="M56.785 38.9678H63.5592V44.7742H56.785V38.9678Z" fill="#2BAA4A" />
		<path d="M28.7205 68H13.2366C11.6361 68 10.3334 66.6972 10.3334 65.0968V57.3548C10.3334 55.7544 11.6361 54.4516 13.2366 54.4516H19.7826L28.7205 49.9824V54.4516C30.3209 54.4516 31.6237 55.7544 31.6237 57.3548V65.0968C31.6237 66.6972 30.3209 68 28.7205 68Z" fill="#2BAA4A" />
		<path d="M65.4947 34.1291H63.5592C56.1542 34.1291 48.983 31.9583 42.8203 27.8506L40.6268 26.3871H33.5592V34.9806L25.8607 24.2021L24.2863 25.3263L33.5592 38.3095V38.9678H28.6652V40.9033H33.5592V57.3549H40.6268L42.8213 55.8914C46.3818 53.5179 50.2858 51.8135 54.3713 50.7782C54.6638 51.134 54.8495 51.4605 54.8495 52.0351C54.8495 52.7562 54.5613 53.0804 54.1265 53.5708C53.6148 54.1469 52.914 54.9346 52.914 56.3919C52.914 57.8482 53.6148 58.6364 54.1265 59.2119C54.5622 59.7024 54.8495 60.0256 54.8495 60.7467C54.8495 61.4659 54.5622 61.7891 54.1265 62.2777C53.6157 62.8537 52.914 63.6405 52.914 65.0968C52.914 66.6973 54.2168 68 55.8173 68H59.6882C61.2887 68 62.5914 66.6973 62.5914 65.0968V49.6488C62.9147 49.6399 63.235 49.6129 63.5592 49.6129H65.4947C68.1626 49.6129 70.3334 47.4421 70.3334 44.7742V38.9678C70.3334 36.2999 68.1626 34.1291 65.4947 34.1291V34.1291ZM54.8495 48.6528V45.742H62.5914V47.7134C59.9689 47.7772 57.3761 48.08 54.8495 48.6528ZM62.5914 43.8065H54.8495V39.9355H62.5914V43.8065ZM62.5914 38H54.8495V35.0892C57.3761 35.662 59.9689 35.9648 62.5914 36.0286V38ZM41.7472 54.2815L40.0399 55.4194H35.4947V28.3226H40.0399L41.7472 29.4605C45.2061 31.7669 48.9736 33.4727 52.914 34.5808V49.1621C48.9736 50.2693 45.2061 51.9751 41.7472 54.2815ZM60.656 65.0968C60.656 65.6308 60.2222 66.0645 59.6882 66.0645H55.8173C55.2833 66.0645 54.8495 65.6308 54.8495 65.0968C54.8495 64.3776 55.1368 64.0535 55.5725 63.5649C56.0842 62.9888 56.785 62.2021 56.785 60.7467C56.785 59.2904 56.0842 58.5026 55.5725 57.9266C55.1368 57.4361 54.8495 57.1129 54.8495 56.3919C54.8495 55.6708 55.1378 55.3466 55.5725 54.8561C56.0842 54.2806 56.785 53.4924 56.785 52.0351C56.785 51.324 56.6177 50.7735 56.3871 50.3269C57.7943 50.0524 59.2171 49.8402 60.656 49.7301V65.0968ZM68.3979 44.7742C68.3979 46.3747 67.0951 47.6775 65.4947 47.6775H64.5269V36.0645H65.4947C67.0951 36.0645 68.3979 37.3673 68.3979 38.9678V44.7742Z" fill="white" />
		<path d="M20.0108 27.3548C14.6745 27.3548 10.3334 23.0137 10.3334 17.6774C10.3334 12.3411 14.6745 8 20.0108 8C25.3471 8 29.6882 12.3411 29.6882 17.6774C29.6882 23.0137 25.3471 27.3548 20.0108 27.3548Z" fill="#2BAA4A" />
		<path d="M20.0108 48.6452C14.6745 48.6452 10.3334 44.304 10.3334 38.9678C10.3334 33.6315 14.6745 29.2903 20.0108 29.2903C25.3471 29.2903 29.6882 33.6315 29.6882 38.9678C29.6882 44.304 25.3471 48.6452 20.0108 48.6452Z" fill="#2BAA4A" />
		<path d="M16.1398 23.3563V11.9985L24.659 17.6774L16.1398 23.3563ZM18.0753 15.6143V19.7405L21.1689 17.6774L18.0753 15.6143Z" fill="white" />
		<path d="M20.0108 42.8387C18.4103 42.8387 17.1075 41.5359 17.1075 39.9355C17.1075 38.335 18.4103 37.0322 20.0108 37.0322C21.6112 37.0322 22.914 38.335 22.914 39.9355C22.914 41.5359 21.6112 42.8387 20.0108 42.8387ZM20.0108 38.9677C19.4768 38.9677 19.043 39.4015 19.043 39.9355C19.043 40.4694 19.4768 40.9032 20.0108 40.9032C20.5447 40.9032 20.9785 40.4694 20.9785 39.9355C20.9785 39.4015 20.5447 38.9677 20.0108 38.9677Z" fill="white" />
		<path d="M26.785 39.9355H24.8495C24.8495 37.2676 22.6787 35.0968 20.0108 35.0968C17.3429 35.0968 15.1721 37.2676 15.1721 39.9355H13.2366C13.2366 36.2011 16.2764 33.1613 20.0108 33.1613C23.7452 33.1613 26.785 36.2011 26.785 39.9355Z" fill="white" />
		<path d="M25.8173 62.1936H27.7527V64.1291H25.8173V62.1936Z" fill="white" />
		<path d="M14.2043 62.1936H23.8818V64.1291H14.2043V62.1936Z" fill="white" />
		<path d="M14.2043 58.3226H27.7527V60.2581H14.2043V58.3226Z" fill="white" />
	</g>
	<defs>
		<clipPath id="clip0_11_89">
			<rect width="60" height="60" fill="white" transform="translate(10.3334 8)" />
		</clipPath>
	</defs>
</svg>
