<svg width="80" height="77" viewBox="0 0 80 77" fill="none" xmlns="http://www.w3.org/2000/svg">
	<path fill-rule="evenodd" clip-rule="evenodd" d="M79.9424 35.833C80.7729 46.7642 72.4704 55.9053 64.5236 63.4136C56.8744 70.6408 47.5827 76.1425 37.0866 76.3243C26.4208 76.509 15.7371 72.4289 8.68749 64.3808C1.9857 56.7298 2.21967 46.0093 1.61885 35.833C0.95836 24.6459 -3.18731 11.1744 5.10382 3.68267C13.3462 -3.76501 26.1297 2.11087 37.0866 3.7849C45.6432 5.09219 53.6861 6.97324 60.6302 12.1661C69.0964 18.4972 79.1389 25.2566 79.9424 35.833Z" fill="#020054" />
	<path d="M54.0625 61.4375C48.8931 61.4375 44.6875 57.2319 44.6875 52.0625C44.6875 46.8931 48.8931 42.6875 54.0625 42.6875C59.2319 42.6875 63.4375 46.8931 63.4375 52.0625C63.4375 57.2319 59.2319 61.4375 54.0625 61.4375ZM54.0625 47.375C51.4778 47.375 49.375 49.4778 49.375 52.0625C49.375 54.6472 51.4778 56.75 54.0625 56.75C56.6472 56.75 58.75 54.6472 58.75 52.0625C58.75 49.4778 56.6472 47.375 54.0625 47.375Z" fill="#2BAA4A" />
	<path d="M14.6875 19.25H31.5625V32.375H14.6875V19.25Z" fill="#2BAA4A" />
	<path d="M54.0625 46.4375C50.9603 46.4375 48.4375 48.9603 48.4375 52.0625C48.4375 55.1647 50.9603 57.6875 54.0625 57.6875C57.1647 57.6875 59.6875 55.1647 59.6875 52.0625C59.6875 48.9603 57.1647 46.4375 54.0625 46.4375ZM54.0625 55.8125C51.9944 55.8125 50.3125 54.1306 50.3125 52.0625C50.3125 49.9944 51.9944 48.3125 54.0625 48.3125C56.1306 48.3125 57.8125 49.9944 57.8125 52.0625C57.8125 54.1306 56.1306 55.8125 54.0625 55.8125Z" fill="white" />
	<path d="M63.4375 40.3719V21.9875C66.6128 21.53 69.0625 18.7991 69.0625 15.5C69.0625 11.8822 66.1187 8.9375 62.5 8.9375C58.8813 8.9375 55.9375 11.8822 55.9375 15.5H10.9375V53H39.1103C39.5978 60.8337 46.1087 67.0625 54.0625 67.0625C62.3331 67.0625 69.0625 60.3331 69.0625 52.0625C69.0625 47.3384 66.8622 43.1234 63.4375 40.3719ZM62.5 10.8125C65.0847 10.8125 67.1875 12.9153 67.1875 15.5C67.1875 18.0847 65.0847 20.1875 62.5 20.1875C59.9153 20.1875 57.8125 18.0847 57.8125 15.5C57.8125 12.9153 59.9153 10.8125 62.5 10.8125ZM39.1103 51.125H12.8125V17.375H56.2141C56.4381 18.1231 56.7944 18.8122 57.2519 19.4234L51.5181 25.1572C51.1506 24.9809 50.7456 24.875 50.3125 24.875C49.8794 24.875 49.4744 24.9809 49.1078 25.1572L47.2188 23.2681C47.3941 22.9006 47.5 22.4956 47.5 22.0625C47.5 20.5119 46.2381 19.25 44.6875 19.25C43.1369 19.25 41.875 20.5119 41.875 22.0625C41.875 22.4956 41.9809 22.9006 42.1572 23.2672L37.4556 27.9687C37.0881 27.7934 36.6831 27.6875 36.25 27.6875C34.6994 27.6875 33.4375 28.9494 33.4375 30.5C33.4375 32.0506 34.6994 33.3125 36.25 33.3125C37.8006 33.3125 39.0625 32.0506 39.0625 30.5C39.0625 30.0669 38.9566 29.6619 38.7803 29.2953L43.4819 24.5938C43.8494 24.7691 44.2544 24.875 44.6875 24.875C45.1206 24.875 45.5256 24.7691 45.8922 24.5928L47.7812 26.4819C47.6059 26.8494 47.5 27.2544 47.5 27.6875C47.5 29.2381 48.7619 30.5 50.3125 30.5C51.8631 30.5 53.125 29.2381 53.125 27.6875C53.125 27.2544 53.0191 26.8494 52.8428 26.4828L58.5775 20.7491C59.4353 21.3922 60.4534 21.8281 61.5625 21.9884V39.0931C59.3528 37.8097 56.7962 37.0625 54.0625 37.0625C49.5812 37.0625 45.5631 39.0481 42.8125 42.1747V38H37.1875V49.25H39.3362C39.2191 49.8622 39.1497 50.4894 39.1103 51.125V51.125ZM51.25 27.6875C51.25 28.205 50.8291 28.625 50.3125 28.625C49.7959 28.625 49.375 28.205 49.375 27.6875C49.375 27.17 49.7959 26.75 50.3125 26.75C50.8291 26.75 51.25 27.17 51.25 27.6875ZM45.625 22.0625C45.625 22.58 45.2041 23 44.6875 23C44.1709 23 43.75 22.58 43.75 22.0625C43.75 21.545 44.1709 21.125 44.6875 21.125C45.2041 21.125 45.625 21.545 45.625 22.0625ZM37.1875 30.5C37.1875 31.0175 36.7666 31.4375 36.25 31.4375C35.7334 31.4375 35.3125 31.0175 35.3125 30.5C35.3125 29.9825 35.7334 29.5625 36.25 29.5625C36.7666 29.5625 37.1875 29.9825 37.1875 30.5ZM39.0625 47.375V39.875H40.9375V44.8166C40.4884 45.6266 40.1172 46.4825 39.8228 47.375H39.0625ZM65.8544 57.7878L62.6022 55.91C62.3425 56.4847 62.0256 57.0256 61.6609 57.5319L64.9263 59.4172C62.5638 62.8972 58.5756 65.1875 54.0625 65.1875C49.5494 65.1875 45.5612 62.8972 43.1987 59.4172L46.4641 57.5319C46.0984 57.0256 45.7825 56.4838 45.5228 55.91L42.2706 57.7878C41.425 56.0553 40.9375 54.1166 40.9375 52.0625C40.9375 45.1419 46.3253 39.4691 53.125 38.9853V42.7353C53.4334 42.7044 53.7456 42.6875 54.0625 42.6875C54.3794 42.6875 54.6916 42.7044 55 42.7353V38.9853C61.7997 39.4691 67.1875 45.1419 67.1875 52.0625C67.1875 54.1166 66.7 56.0553 65.8544 57.7878Z" fill="white" />
	<path d="M14.6875 19.25H16.5625V21.125H14.6875V19.25Z" fill="white" />
	<path d="M18.4375 19.25H31.5625V21.125H18.4375V19.25Z" fill="white" />
	<path d="M14.6875 23H16.5625V24.875H14.6875V23Z" fill="white" />
	<path d="M18.4375 23H31.5625V24.875H18.4375V23Z" fill="white" />
	<path d="M14.6875 26.75H16.5625V28.625H14.6875V26.75Z" fill="white" />
	<path d="M18.4375 26.75H31.5625V28.625H18.4375V26.75Z" fill="white" />
	<path d="M14.6875 30.5H16.5625V32.375H14.6875V30.5Z" fill="white" />
	<path d="M18.4375 30.5H31.5625V32.375H18.4375V30.5Z" fill="white" />
	<path d="M14.6875 49.25H20.3125V39.875H14.6875V49.25ZM16.5625 41.75H18.4375V47.375H16.5625V41.75Z" fill="white" />
	<path d="M22.1875 49.25H27.8125V41.75H22.1875V49.25ZM24.0625 43.625H25.9375V47.375H24.0625V43.625Z" fill="white" />
	<path d="M29.6875 49.25H35.3125V34.25H29.6875V49.25ZM31.5625 36.125H33.4375V47.375H31.5625V36.125Z" fill="white" />
</svg>
