<svg width="81" height="77" viewBox="0 0 81 77" fill="none" xmlns="http://www.w3.org/2000/svg">
	<path fill-rule="evenodd" clip-rule="evenodd" d="M80.6092 35.833C81.4397 46.7642 73.1371 55.9053 65.1903 63.4136C57.5411 70.6408 48.2494 76.1425 37.7534 76.3243C27.0875 76.509 16.4038 72.4289 9.35424 64.3808C2.65245 56.7298 2.88642 46.0093 2.2856 35.833C1.62511 24.6459 -2.52057 11.1744 5.77057 3.68267C14.013 -3.76501 26.7964 2.11087 37.7534 3.7849C46.3099 5.09219 54.3528 6.97324 61.2969 12.1661C69.7631 18.4972 79.8057 25.2566 80.6092 35.833Z" fill="#020054" />
	<path d="M38.7917 38.9375H28.948L28.8983 39.0369C28.6414 39.5506 28.1164 39.875 27.5417 39.875C26.9671 39.875 26.4421 39.5506 26.1852 39.0369L26.1355 38.9375H21.9167C20.3661 38.9375 19.1042 40.1994 19.1042 41.75C19.1042 43.3006 20.3661 44.5625 21.9167 44.5625H38.7917C40.3424 44.5625 41.6042 43.3006 41.6042 41.75C41.6042 40.1994 40.3424 38.9375 38.7917 38.9375Z" fill="#2BAA4A" />
	<path d="M54.7292 37.0625H39.7292V25.8125H54.7292V37.0625Z" fill="#2BAA4A" />
	<path d="M54.7292 44.5625H43.4792V39.875H54.7292V44.5625Z" fill="#2BAA4A" />
	<path d="M17.2292 50.1875H19.1042V52.0625H17.2292V50.1875Z" fill="white" />
	<path d="M24.7292 50.1875H26.6042V52.0625H24.7292V50.1875Z" fill="white" />
	<path d="M20.9792 50.1875H22.8542V52.0625H20.9792V50.1875Z" fill="white" />
	<path d="M65.3624 29.0441C64.9433 28.2078 64.1024 27.6875 63.1667 27.6875C62.8339 27.6875 62.5236 27.7738 62.2292 27.8956V23C62.2292 20.4153 60.1264 18.3125 57.5417 18.3125H34.8692C34.4811 17.2241 33.4499 16.4375 32.2292 16.4375V13.625C32.2292 11.0403 30.1264 8.9375 27.5417 8.9375C24.9571 8.9375 22.8542 11.0403 22.8542 13.625V16.4375C21.6336 16.4375 20.6024 17.2241 20.2142 18.3125H16.2917C13.7071 18.3125 11.6042 20.4153 11.6042 23V51.125C11.6042 53.7097 13.7071 55.8125 16.2917 55.8125H29.3811C29.2236 57.3078 28.4464 58.6634 27.2286 59.5625H22.8542C21.3036 59.5625 20.0417 60.8244 20.0417 62.375V64.25C20.0417 65.8006 21.3036 67.0625 22.8542 67.0625H50.9792C52.5299 67.0625 53.7917 65.8006 53.7917 64.25V62.375C53.7917 60.8244 52.5299 59.5625 50.9792 59.5625H46.6049C45.3871 58.6634 44.6099 57.3078 44.4524 55.8125H56.6042V60.5C56.6042 64.1187 59.5489 67.0625 63.1667 67.0625C66.7846 67.0625 69.7292 64.1187 69.7292 60.5V37.7787L65.3624 29.0441ZM63.6852 29.8831L67.2749 37.0625H59.0586L62.6483 29.8831C62.8461 29.4866 63.4874 29.4875 63.6852 29.8831ZM30.3542 25.8125H26.6042V27.6875H30.3542V29.5625H28.4792V31.4375H30.3542V33.3125H26.6042V35.1875H29.7749L28.0602 38.6169C27.8624 39.0134 27.2211 39.0125 27.0242 38.6169L24.7292 34.0287V22.0625H30.3542V25.8125ZM25.3461 39.4559C25.7652 40.2922 26.6061 40.8125 27.5417 40.8125C28.4774 40.8125 29.3183 40.2922 29.7374 39.4559L32.2292 34.4713V23.9375H56.6042V37.7787V38V46.4375H17.2292V23.9375H22.8542V34.4713L25.3461 39.4559ZM58.4792 52.0625V38.9375H62.2292V52.0625H58.4792ZM58.4792 53.9375H67.8542V55.8125H58.4792V53.9375ZM64.1042 52.0625V38.9375H67.8542V52.0625H64.1042ZM60.3542 23V30.2778L58.4792 34.0278V23.9375C58.4792 22.9034 57.6383 22.0625 56.6042 22.0625H32.2292C33.4499 22.0625 34.4811 21.2759 34.8692 20.1875H57.5417C59.0924 20.1875 60.3542 21.4494 60.3542 23ZM24.7292 13.625C24.7292 12.0744 25.9911 10.8125 27.5417 10.8125C29.0924 10.8125 30.3542 12.0744 30.3542 13.625V16.4375H24.7292V13.625ZM22.8542 18.3125H32.2292C32.7467 18.3125 33.1667 18.7334 33.1667 19.25C33.1667 19.7666 32.7467 20.1875 32.2292 20.1875H22.8542C22.3367 20.1875 21.9167 19.7666 21.9167 19.25C21.9167 18.7334 22.3367 18.3125 22.8542 18.3125ZM51.9167 62.375V64.25C51.9167 64.7666 51.4967 65.1875 50.9792 65.1875H22.8542C22.3367 65.1875 21.9167 64.7666 21.9167 64.25V62.375C21.9167 61.8584 22.3367 61.4375 22.8542 61.4375H50.9792C51.4967 61.4375 51.9167 61.8584 51.9167 62.375ZM43.9761 59.5625H29.8574C30.6617 58.4797 31.1492 57.185 31.2561 55.8125H42.5764C42.6842 57.185 43.1717 58.4797 43.9761 59.5625ZM16.2917 53.9375C14.7411 53.9375 13.4792 52.6756 13.4792 51.125V23C13.4792 21.4494 14.7411 20.1875 16.2917 20.1875H20.2142C20.6024 21.2759 21.6336 22.0625 22.8542 22.0625H17.2292C16.1952 22.0625 15.3542 22.9034 15.3542 23.9375V46.4375C15.3542 47.4716 16.1952 48.3125 17.2292 48.3125H56.6042V53.9375H16.2917ZM63.1667 65.1875C60.5821 65.1875 58.4792 63.0847 58.4792 60.5V57.6875H67.8542V60.5C67.8542 63.0847 65.7514 65.1875 63.1667 65.1875Z" fill="white" />
	<path d="M43.8983 34.1516L47.2292 32.4856L50.5602 34.1516L51.3983 32.4734L49.3255 31.4375L51.3983 30.4016L50.5602 28.7234L47.2292 30.3894L43.8983 28.7234L43.0602 30.4016L45.133 31.4375L43.0602 32.4734L43.8983 34.1516Z" fill="white" />
	<path d="M43.4792 38.9375H54.7292V40.8125H43.4792V38.9375Z" fill="white" />
	<path d="M52.8542 42.6875H54.7292V44.5625H52.8542V42.6875Z" fill="white" />
	<path d="M43.4792 42.6875H50.9792V44.5625H43.4792V42.6875Z" fill="white" />
</svg>
