<svg width="230" height="40" viewBox="0 0 230 40" fill="none" xmlns="http://www.w3.org/2000/svg">
	<path d="M85.5086 13.9675H71.9667V18.0829H81.5965C81.115 23.882 76.4205 26.4385 72.0269 26.4385C66.3693 26.4385 61.434 21.8242 61.434 15.4017C61.434 9.10384 66.1286 4.24015 72.0269 4.24015C76.601 4.24015 79.2492 7.23319 79.2492 7.23319L82.0178 4.24015C82.0178 4.24015 78.4066 0.124725 71.8463 0.124725C63.4804 0.0623705 57.0404 7.3579 57.0404 15.277C57.0404 23.009 63.1192 30.5539 72.087 30.5539C79.9715 30.5539 85.7494 25.0043 85.7494 16.7111C85.7494 14.9652 85.5086 13.9675 85.5086 13.9675V13.9675Z" fill="#AEC0CE" />
	<path fill-rule="evenodd" clip-rule="evenodd" d="M87.0133 20.6395C87.0133 15.4017 90.9856 10.9121 96.5228 10.9121C101.097 10.9121 106.032 14.2793 106.092 20.7642C106.092 26.5008 101.879 30.5539 96.6432 30.5539C90.8652 30.5539 87.0133 26.002 87.0133 20.6395ZM101.879 20.7642C101.879 17.1476 99.2913 14.8404 96.583 14.8404C93.5134 14.8404 91.1662 17.3346 91.2264 20.7018C91.2264 24.1937 93.5736 26.6879 96.583 26.6879C99.3515 26.6879 101.879 24.3807 101.879 20.7642Z" fill="#AEC0CE" />
	<path fill-rule="evenodd" clip-rule="evenodd" d="M107.717 20.6395C107.717 15.4017 111.69 10.9121 117.227 10.9121C121.801 10.9121 126.736 14.2793 126.797 20.7642C126.797 26.5008 122.583 30.5539 117.347 30.5539C111.569 30.5539 107.717 26.002 107.717 20.6395ZM122.583 20.7642C122.583 17.1476 119.995 14.8404 117.287 14.8404C114.218 14.8404 111.87 17.3346 111.93 20.7018C111.93 24.1937 114.278 26.6879 117.287 26.6879C120.056 26.6879 122.583 24.3807 122.583 20.7642Z" fill="#AEC0CE" />
	<path fill-rule="evenodd" clip-rule="evenodd" d="M128.422 20.7642C128.422 15.5887 132.394 10.9745 137.51 10.9745C139.737 10.9745 141.422 11.8474 142.505 13.2192V11.5357H146.478V29.1821C146.478 36.1035 142.626 39.4083 137.57 39.4083C132.936 39.4083 130.348 36.4776 129.084 33.6717L132.755 32.1128C133.297 33.3599 134.741 35.6047 137.63 35.6047C140.639 35.6047 142.626 33.5469 142.626 30.1798V28.2468C141.482 29.5562 140.098 30.6163 137.389 30.6163C133.056 30.6163 128.422 26.6255 128.422 20.7642ZM142.927 20.8265C142.927 17.0852 140.339 14.8404 137.871 14.8404C135.223 14.8404 132.635 17.0229 132.574 20.8889C132.574 24.4431 135.102 26.7502 137.811 26.7502C140.399 26.7502 142.927 24.6925 142.927 20.8265Z" fill="#AEC0CE" />
	<path fill-rule="evenodd" clip-rule="evenodd" d="M155.445 20.7018C155.445 14.8405 159.478 10.9121 164.293 10.9121C168.024 10.9121 170.853 13.531 172.117 16.5241L172.779 18.1453L160.08 23.6325C160.862 25.129 162.066 26.6256 164.714 26.6256C167.061 26.6256 168.506 25.3161 169.349 23.9443L172.659 26.2514C171.214 28.2468 168.686 30.5539 164.714 30.5539C159.959 30.5539 155.445 26.875 155.445 20.7018ZM167.964 16.8358C167.362 15.6511 166.159 14.7157 164.413 14.7157C161.705 14.7157 159.057 17.6464 159.538 20.5147L167.964 16.8358Z" fill="#AEC0CE" />
	<path d="M149.427 29.9927H153.58V1.06003H149.427V29.9927Z" fill="#AEC0CE" />
</svg>
