<svg width="422" height="122" viewBox="0 0 422 122" fill="none" xmlns="http://www.w3.org/2000/svg">
	<path d="M107.474 28.0583C107.07 27.8623 106.62 27.7828 106.174 27.8289C105.728 27.875 105.304 28.0448 104.949 28.3192L89.9528 39.9409L55.1465 21.3091C54.7991 21.1249 54.412 21.0286 54.0188 21.0286C53.6256 21.0286 53.2385 21.1249 52.8911 21.3091L36.3716 29.9013C35.3809 29.3826 34.2476 29.2028 33.145 29.3893C32.0424 29.5759 31.0313 30.1185 30.2663 30.9342C29.5014 31.7498 29.0247 32.7936 28.9092 33.9059C28.7938 35.0182 29.0459 36.1376 29.6269 37.0931C30.208 38.0485 31.0861 38.7872 32.1269 39.1963C33.1676 39.6053 34.3137 39.6621 35.3898 39.358C36.4659 39.054 37.4128 38.4057 38.0855 37.5125C38.7583 36.6192 39.1199 35.5302 39.115 34.412C39.1065 34.2513 39.0897 34.0912 39.0645 33.9323L51.5951 27.4019V40.5552L36.6072 50.031C36.265 50.2496 35.9832 50.5506 35.7876 50.9064C35.592 51.2623 35.489 51.6615 35.488 52.0676V70.8509L24.085 77.5832V43.7952C24.0852 43.4022 23.9894 43.0152 23.8061 42.6677C23.6228 42.3201 23.3575 42.0225 23.0331 41.8007L9.61045 32.67L54.0356 6.20335L87.3272 25.1718C87.3322 26.1863 87.6377 27.1767 88.2051 28.0177C88.7726 28.8588 89.5766 29.5128 90.5155 29.8972C91.4544 30.2816 92.4862 30.3792 93.4806 30.1776C94.4749 29.976 95.3872 29.4843 96.1023 28.7645C96.8173 28.0448 97.3031 27.1292 97.4982 26.1336C97.6933 25.138 97.5889 24.1068 97.1984 23.1704C96.8078 22.234 96.1485 21.4344 95.3038 20.8724C94.4591 20.3105 93.4668 20.0115 92.4522 20.0131C91.4244 20.0106 90.4203 20.3218 89.5741 20.9051L55.197 1.32239C54.8285 1.10967 54.4106 0.997681 53.9851 0.997681C53.5597 0.997681 53.1418 1.10967 52.7733 1.32239L3.89636 30.4567C3.54931 30.6653 3.26027 30.9578 3.05582 31.3073C2.85137 31.6568 2.73807 32.0521 2.72633 32.4568C2.7146 32.8616 2.80482 33.2628 2.98868 33.6235C3.17254 33.9843 3.44415 34.293 3.77854 34.5214L19.2714 45.0659V81.8583C19.2711 82.2604 19.3719 82.6561 19.5646 83.009C19.7572 83.3619 20.0355 83.6607 20.3738 83.878L36.7419 94.4899C36.7536 95.6342 37.1473 96.7418 37.8605 97.6368C38.5737 98.5317 39.5655 99.1627 40.6784 99.4295C41.7913 99.6962 42.9613 99.5835 44.0028 99.1091C45.0443 98.6348 45.8974 97.8261 46.4266 96.8114C46.9558 95.7967 47.1308 94.6343 46.9238 93.5088C46.7167 92.3833 46.1396 91.3592 45.2839 90.5993C44.4283 89.8394 43.3433 89.3871 42.2012 89.3144C41.0591 89.2417 39.9255 89.5527 38.9804 90.198L26.2478 81.9509L37.8695 75.0586L52.7733 83.9285C53.1498 84.1453 53.5759 84.2612 54.0104 84.2651C54.3978 84.2649 54.7793 84.1696 55.1212 83.9874L72.3729 74.9492L84.4323 80.7474L52.8911 99.3119C52.5304 99.5241 52.2313 99.8266 52.0232 100.19C51.8151 100.553 51.7053 100.964 51.7045 101.382V115.571L7.57391 91.9989V52.926C8.36547 52.4925 9.02831 51.8575 9.4952 51.0852C9.96209 50.3129 10.2164 49.4309 10.2324 48.5285C10.2483 47.6262 10.0254 46.7358 9.58606 45.9474C9.14677 45.1591 8.50679 44.501 7.73105 44.0399C6.95531 43.5788 6.07141 43.331 5.16901 43.3217C4.2666 43.3125 3.37781 43.5421 2.59278 43.9872C1.80775 44.4324 1.15442 45.0772 0.69907 45.8564C0.243716 46.6355 0.00253763 47.5212 0 48.4237C0.00131697 49.3503 0.255058 50.259 0.733964 51.0522C1.21287 51.8455 1.89884 52.4932 2.71819 52.926V93.4379C2.71951 93.8752 2.8391 94.304 3.06429 94.6788C3.28949 95.0536 3.61189 95.3606 3.99734 95.5671L53.0174 121.714C53.3673 121.9 53.7572 121.998 54.1534 122C54.7925 121.998 55.4047 121.742 55.8558 121.29C56.307 120.837 56.5603 120.224 56.5603 119.585V102.754L90.7859 82.5568C91.149 82.3452 91.4498 82.0416 91.6582 81.6767C91.8665 81.3118 91.9749 80.8984 91.9725 80.4781V63.1928C92.9845 62.6556 93.7877 61.7954 94.2542 60.749C94.7207 59.7026 94.8238 58.5302 94.5471 57.4184C94.2703 56.3067 93.6295 55.3195 92.7268 54.6139C91.8241 53.9084 90.7114 53.5251 89.5657 53.5251C88.42 53.5251 87.3072 53.9084 86.4045 54.6139C85.5018 55.3195 84.8611 56.3067 84.5843 57.4184C84.3075 58.5302 84.4106 59.7026 84.8772 60.749C85.3437 61.7954 86.1469 62.6556 87.1589 63.1928V76.7417L74.7292 70.7415V52.0676C74.7302 51.6383 74.6159 51.2166 74.3983 50.8465C74.1807 50.4765 73.8678 50.1716 73.4922 49.9637L56.3835 40.4627V27.4524L89.0271 44.9229C89.4367 45.142 89.9009 45.238 90.3638 45.1992C90.8267 45.1604 91.2685 44.9884 91.6359 44.7041L103.973 35.1357V90.3411L71.1527 107.879C70.1684 107.34 69.0341 107.14 67.9247 107.309C66.8153 107.478 65.7923 108.007 65.0131 108.814C64.2339 109.622 63.7419 110.663 63.6128 111.778C63.4836 112.893 63.7246 114.019 64.2985 114.983C64.8724 115.948 65.7474 116.697 66.7888 117.115C67.8301 117.533 68.9801 117.597 70.0616 117.298C71.1431 116.998 72.096 116.351 72.7737 115.457C73.4514 114.562 73.8162 113.47 73.8119 112.347C73.8119 112.213 73.8119 112.078 73.8119 111.944L107.55 93.9092C107.934 93.7044 108.255 93.3988 108.479 93.0252C108.703 92.6516 108.821 92.2241 108.82 91.7885V30.2211C108.821 29.7707 108.695 29.3292 108.457 28.9469C108.219 28.5646 107.878 28.2567 107.474 28.0583ZM69.9156 70.8004L54.0777 79.098L40.31 70.8509V53.3972L54.0861 44.6872L69.9156 53.4814V70.8004Z" fill="#BEBEBE" />
	<path d="M175.042 64.0687H168.932C168.329 64.0915 167.736 63.9107 167.249 63.5554C166.819 63.2257 166.49 62.7827 166.298 62.2762L163.125 53.6167H145.537L142.364 62.2762C142.18 62.7683 141.859 63.1975 141.439 63.5133C140.961 63.8911 140.364 64.0878 139.756 64.0687H133.612L150.292 21.6127H158.371L175.042 64.0687ZM147.557 48.0793H161.097L155.88 33.9077C155.644 33.285 155.391 32.5444 155.105 31.6944C154.819 30.8445 154.541 29.9188 154.264 28.9173C153.994 29.9188 153.725 30.8529 153.464 31.7113C153.203 32.5697 152.934 33.327 152.682 33.975L147.557 48.0793Z" fill="white" />
	<path d="M190.475 47.4819V64.0688H182.615V21.6128H195.567C198.079 21.5636 200.585 21.8638 203.014 22.5048C204.85 22.9995 206.567 23.858 208.064 25.0295C209.343 26.0526 210.344 27.3809 210.975 28.8922C212.099 31.7719 212.203 34.9497 211.27 37.8967C210.858 39.1433 210.241 40.3124 209.444 41.3555C208.625 42.4251 207.632 43.3496 206.507 44.0905C205.277 44.9037 203.936 45.5357 202.526 45.9671C203.564 46.5734 204.451 47.4079 205.118 48.4076L215.747 64.0856H208.619C208.012 64.105 207.411 63.9627 206.877 63.6733C206.381 63.3883 205.962 62.9868 205.657 62.5035L196.728 48.8873C196.455 48.4409 196.076 48.0682 195.626 47.8017C195.068 47.5549 194.459 47.4452 193.85 47.4819H190.475ZM190.475 41.8099H195.407C196.724 41.8353 198.037 41.6478 199.295 41.2545C200.305 40.9406 201.237 40.4156 202.03 39.7145C202.736 39.0683 203.283 38.2676 203.629 37.375C203.991 36.4298 204.17 35.4247 204.159 34.4127C204.215 33.4765 204.052 32.5401 203.682 31.6782C203.312 30.8162 202.747 30.0524 202.03 29.4476C200.608 28.2947 198.445 27.714 195.525 27.714H190.475V41.8099Z" fill="white" />
	<path d="M231.88 39.403H233.731C234.36 39.4242 234.987 39.3183 235.574 39.0917C236.078 38.8828 236.517 38.5428 236.845 38.1071L248.559 23.279C248.96 22.7271 249.489 22.2797 250.099 21.9746C250.748 21.7115 251.444 21.5881 252.144 21.6128H258.952L244.646 39.2852C244.245 39.7738 243.812 40.2349 243.35 40.6653C242.952 41.0264 242.508 41.3321 242.029 41.5742C242.665 41.8024 243.257 42.1383 243.779 42.5672C244.347 43.0653 244.853 43.6305 245.285 44.2503L260.038 64.0687H253.053C252.33 64.112 251.607 63.9762 250.949 63.6732C250.469 63.3914 250.069 62.9916 249.788 62.5119L237.779 46.8339C237.441 46.3648 236.993 45.9862 236.474 45.7315C235.81 45.4749 235.099 45.3603 234.387 45.3948H231.863V64.0687H223.961V21.5791H231.863L231.88 39.403Z" fill="white" />
	<path d="M304.968 64.0687H298.858C298.255 64.0915 297.662 63.9107 297.175 63.5554C296.745 63.2257 296.416 62.7827 296.224 62.2762L293.051 53.6167H275.463L272.291 62.2762C272.109 62.7699 271.787 63.1998 271.365 63.5133C270.887 63.8911 270.291 64.0878 269.682 64.0687H263.538L280.235 21.6127H288.314L304.968 64.0687ZM277.483 48.0793H291.023L285.848 33.9077C285.612 33.285 285.36 32.5444 285.074 31.6944C284.787 30.8445 284.51 29.9188 284.232 28.9173C283.963 29.9188 283.693 30.8529 283.433 31.7113C283.172 32.5697 282.902 33.327 282.65 33.975L277.483 48.0793Z" fill="white" />
	<path d="M349.982 42.8365C350.01 45.7701 349.473 48.6816 348.4 51.4119C347.426 53.9434 345.929 56.2407 344.006 58.1536C342.083 60.0664 339.778 61.5515 337.241 62.5118C334.44 63.581 331.461 64.1093 328.464 64.0687H312.281V21.6127H328.489C331.487 21.5749 334.466 22.106 337.266 23.178C339.802 24.1587 342.11 25.6479 344.049 27.554C345.96 29.469 347.451 31.7621 348.425 34.2864C349.486 37.0107 350.014 39.9131 349.982 42.8365ZM341.911 42.8365C341.94 40.7094 341.621 38.5918 340.969 36.567C340.413 34.8346 339.505 33.2359 338.301 31.8712C337.134 30.5874 335.697 29.5785 334.094 28.9173C332.308 28.2241 330.404 27.8895 328.489 27.9327H320.233V57.7824H328.489C330.407 57.8164 332.312 57.4674 334.094 56.7557C335.698 56.1005 337.136 55.094 338.301 53.8103C339.503 52.4412 340.411 50.8401 340.969 49.106C341.622 47.0814 341.941 44.9637 341.911 42.8365Z" fill="white" />
	<path d="M368.016 64.0687H360.089V21.6127H368.016V64.0687Z" fill="white" />
	<path d="M421.227 42.8366C421.256 45.7952 420.728 48.7329 419.67 51.4961C418.685 54.0593 417.197 56.3998 415.294 58.3799C413.373 60.3472 411.063 61.892 408.511 62.9159C402.854 65.0925 396.589 65.0925 390.932 62.9159C388.371 61.8945 386.052 60.3495 384.123 58.3799C382.207 56.4073 380.712 54.0651 379.731 51.4961C378.674 48.7356 378.145 45.8008 378.174 42.845C378.146 39.892 378.675 36.9602 379.731 34.2023C380.714 31.6318 382.209 29.2872 384.123 27.3101C386.055 25.3433 388.373 23.7988 390.932 22.7741C393.731 21.659 396.721 21.1043 399.734 21.1415C402.742 21.1015 405.729 21.6593 408.52 22.7826C411.067 23.8158 413.375 25.3595 415.303 27.3185C417.207 29.294 418.695 31.6321 419.679 34.1939C420.732 36.9523 421.257 39.8841 421.227 42.8366ZM413.123 42.8366C413.153 40.7106 412.84 38.5938 412.197 36.5671C411.64 34.8318 410.735 33.2283 409.538 31.8544C408.378 30.5613 406.939 29.5484 405.33 28.8922C401.722 27.5232 397.738 27.5232 394.129 28.8922C392.521 29.5489 391.082 30.5617 389.922 31.8544C388.71 33.2241 387.794 34.8282 387.229 36.5671C386.571 38.5909 386.246 40.7085 386.269 42.8366C386.238 44.9633 386.553 47.081 387.203 49.1061C387.767 50.8432 388.684 52.4449 389.896 53.8103C391.06 55.0954 392.498 56.1021 394.104 56.7557C397.712 58.1248 401.697 58.1248 405.305 56.7557C406.911 56.1026 408.349 55.0958 409.513 53.8103C410.712 52.4408 411.617 50.8397 412.172 49.1061C412.824 47.0809 413.145 44.9639 413.123 42.8366Z" fill="white" />
	<path d="M202.913 88.5661C202.933 90.1514 202.647 91.7256 202.072 93.203C201.546 94.5722 200.737 95.8148 199.697 96.8489C198.657 97.8831 197.41 98.6854 196.038 99.2032C194.523 99.7816 192.913 100.067 191.292 100.045H182.531V77.0874H191.292C192.913 77.0604 194.525 77.3461 196.038 77.9289C197.41 78.4572 198.659 79.2621 199.707 80.2937C200.74 81.3245 201.545 82.56 202.072 83.9207C202.648 85.4007 202.934 86.9779 202.913 88.5661ZM198.546 88.5661C198.56 87.4241 198.389 86.2874 198.041 85.1999C197.738 84.2673 197.245 83.4077 196.593 82.6752C195.965 81.9812 195.188 81.4376 194.321 81.0847C193.358 80.7027 192.328 80.5139 191.292 80.5293H186.823V96.6954H191.283C192.32 96.7108 193.349 96.522 194.313 96.14C195.179 95.7811 195.955 95.2351 196.585 94.541C197.237 93.8085 197.73 92.9489 198.033 92.0164C198.393 90.9025 198.566 89.7366 198.546 88.5661Z" fill="#BEBEBE" />
	<path d="M222.833 100.045H218.541V77.0874H222.833V100.045Z" fill="#BEBEBE" />
	<path d="M250.284 96.9394C251.133 96.9507 251.98 96.8632 252.809 96.6785C253.512 96.5045 254.197 96.2621 254.854 95.9548V91.7471H251.976C251.738 91.759 251.506 91.6774 251.328 91.5199C251.251 91.4477 251.19 91.3602 251.15 91.2631C251.109 91.1659 251.089 91.0613 251.092 90.956V88.524H258.725V97.781C258.151 98.1989 257.543 98.5677 256.907 98.8834C256.262 99.2041 255.589 99.4633 254.896 99.6576C254.143 99.8671 253.375 100.019 252.598 100.112C251.717 100.231 250.829 100.296 249.939 100.306C248.359 100.333 246.788 100.047 245.319 99.4641C243.942 98.9077 242.694 98.0747 241.652 97.0165C240.609 95.9584 239.795 94.6977 239.26 93.3124C238.677 91.8107 238.391 90.2102 238.418 88.5997C238.398 86.9788 238.684 85.3686 239.26 83.8534C239.785 82.4506 240.605 81.1769 241.665 80.1185C242.725 79.0601 244 78.2417 245.403 77.7185C246.989 77.132 248.67 76.8466 250.36 76.877C252.02 76.8418 253.672 77.1275 255.224 77.7185C256.509 78.2224 257.693 78.9552 258.716 79.8813L257.463 81.7916C257.37 81.9688 257.231 82.1173 257.061 82.2212C256.89 82.325 256.694 82.3802 256.495 82.3807C256.218 82.3733 255.949 82.2856 255.721 82.1282L254.677 81.5223C254.303 81.3151 253.911 81.1406 253.507 81.0005C253.036 80.8405 252.551 80.7194 252.06 80.6387C251.448 80.5346 250.829 80.4867 250.208 80.4956C249.156 80.4775 248.112 80.6722 247.137 81.0679C246.244 81.4298 245.445 81.9877 244.797 82.7005C244.135 83.4338 243.625 84.2921 243.299 85.2251C242.936 86.3095 242.76 87.4478 242.778 88.5913C242.758 89.7926 242.946 90.9883 243.333 92.1258C243.665 93.0939 244.196 93.9823 244.89 94.7346C245.554 95.4475 246.367 96.005 247.271 96.3672C248.229 96.7503 249.252 96.9447 250.284 96.9394Z" fill="#BEBEBE" />
	<path d="M279.267 100.045H274.983V77.0874H279.267V100.045Z" fill="#BEBEBE" />
	<path d="M312.365 77.0874V80.5966H305.481V100.045H301.206V80.5966H294.271V77.0874H312.365Z" fill="#BEBEBE" />
	<path d="M344.68 100.045H341.373C341.047 100.058 340.727 99.9605 340.464 99.767C340.229 99.5909 340.048 99.3517 339.942 99.077L338.259 94.398H328.716L327.033 99.077C326.925 99.3635 326.731 99.6099 326.478 99.783C326.225 99.956 325.926 100.047 325.619 100.045H322.312L331.333 77.0874H335.701L344.68 100.045ZM329.819 91.3768H337.132L334.338 83.7356C334.211 83.399 334.077 83.0035 333.917 82.5406C333.757 82.0778 333.614 81.5813 333.462 81.0427C333.319 81.5813 333.176 82.0778 333.033 82.549C332.89 83.0203 332.747 83.3906 332.613 83.7693L329.819 91.3768Z" fill="#BEBEBE" />
	<path d="M363.068 96.5187H372.258V100.045H358.793V77.0874H363.068V96.5187Z" fill="#BEBEBE" />
</svg>
