<svg width="230" height="40" viewBox="0 0 230 40" fill="none" xmlns="http://www.w3.org/2000/svg">
	<path fill-rule="evenodd" clip-rule="evenodd" d="M69.9396 34.2006L69.9395 34.2006L69.9395 34.2006H69.9395C69.2709 34.2712 68.5922 34.3429 67.8972 34.4311L62.3215 17.8061V35.1385C60.5791 35.3154 59.011 35.5512 57.3267 35.846V4.06992H61.9731L68.3038 22.1098V4.06992H73.2406V33.7826C72.1498 33.9671 71.059 34.0824 69.9398 34.2006L69.9397 34.2006L69.9397 34.2006L69.9396 34.2006L69.9396 34.2006ZM86.3132 15.6817H86.3133L86.3134 15.6817C87.4674 15.6529 88.5945 15.6249 89.4449 15.6249V20.577C87.2959 20.577 84.7404 20.577 82.8819 20.6949V28.0641C83.7865 28.0079 84.697 27.9457 85.6114 27.8833L85.6117 27.8832L85.612 27.8832L85.6122 27.8832L85.6125 27.8832L85.6129 27.8832C87.5749 27.7492 89.5554 27.6139 91.5358 27.5335V32.3088L78.0031 33.3699V4.06992H91.5358V9.02203H82.8819V15.7428C83.863 15.7428 85.1028 15.7119 86.313 15.6817L86.3131 15.6817H86.3132H86.3132H86.3132ZM104.604 9.08099H109.657C109.657 9.08099 109.657 4.06992 109.715 4.06992H94.6721V9.08099H99.7251V31.955C101.293 31.8961 102.977 31.8961 104.604 31.8961H104.604V9.08099ZM117.614 15.389H124.293V20.3412H117.614V31.6013H112.793V4.06992H126.442V9.02203H117.614V15.389ZM139.464 27.4757L139.463 27.4757C137.784 27.3755 136.091 27.2745 134.399 27.2387V4.06992H129.52V31.8961C133.992 32.014 138.348 32.2498 142.704 32.5446V27.6514C141.632 27.6051 140.55 27.5406 139.464 27.4757ZM146.828 32.8983C147.371 32.9392 147.922 32.9729 148.477 33.007C149.523 33.0712 150.586 33.1364 151.649 33.252V4.06992H146.828V32.8983ZM166.807 19.1621L173.022 4.06992H167.621L164.194 12.3824L160.999 4.06992H155.772L161.464 18.9852L155.191 33.4878C155.888 33.5822 156.585 33.6576 157.282 33.7331C158.328 33.8463 159.373 33.9595 160.419 34.1363L164.02 25.7059L167.504 34.9027C168.155 35.006 168.799 35.1164 169.441 35.2265C170.631 35.4308 171.814 35.6338 173.022 35.787L166.807 19.1621Z" fill="#AEC0CE" />
</svg>
