<svg width="230" height="40" viewBox="0 0 230 40" fill="none" xmlns="http://www.w3.org/2000/svg">
	<path d="M72.2888 4.08354C71.7591 2.2946 69.905 1.33133 68.1833 1.88177C66.4616 2.43221 65.5345 4.35877 66.0643 6.14771L74.5403 33.2571C75.1362 34.9084 76.8579 35.8717 78.5134 35.39C80.2351 34.8396 81.2946 32.9818 80.7649 31.1929C80.7649 31.1241 72.2888 4.08354 72.2888 4.08354" fill="#AEC0CE" />
	<path d="M59.1775 8.5559C58.6478 6.76695 56.7936 5.80368 55.0719 6.35412C53.3502 6.90456 52.4232 8.83112 52.9529 10.6201L61.4289 37.7294C62.0249 39.3807 63.7466 40.344 65.4021 39.8624C67.1238 39.3119 68.1833 37.4542 67.6535 35.6652C67.6535 35.5964 59.1775 8.5559 59.1775 8.5559" fill="#AEC0CE" />
	<path d="M83.0163 26.5829C84.738 26.0325 85.6651 24.1059 85.1353 22.317C84.6056 20.5281 82.7514 19.5648 81.0297 20.1152L54.8733 28.8535C53.284 29.4728 52.357 31.2617 52.8205 32.9819C53.3502 34.7708 55.1381 35.8717 56.8598 35.3212C56.9923 35.3212 83.0163 26.5829 83.0163 26.5829" fill="#AEC0CE" />
	<path d="M60.3032 34.2203C62.0249 33.6699 64.2101 32.913 66.5278 32.0873C65.998 30.2984 65.2696 28.0278 64.475 25.6196L58.2504 27.7526L60.3032 34.2203" fill="#AEC0CE" />
	<path d="M73.4808 29.748C75.8646 28.9224 78.0499 28.2343 79.7053 27.6151C79.1756 25.8261 78.4472 23.5555 77.6526 21.1473L71.428 23.2803L73.4808 29.748" fill="#AEC0CE" />
	<path d="M78.7121 12.8907C80.4337 12.3402 81.3608 10.4137 80.8311 8.62474C80.3013 6.8358 78.4472 5.87253 76.7255 6.42297L50.6352 15.2301C49.046 15.8493 48.1189 17.6383 48.5824 19.3584C49.1122 21.2161 50.9001 22.317 52.6218 21.6978C52.688 21.6978 78.7121 12.8907 78.7121 12.8907" fill="#AEC0CE" />
	<path d="M56.0652 20.528C57.7869 19.9776 59.9721 19.2207 62.2898 18.3951C61.4951 15.9181 60.8329 13.6475 60.237 11.9274L54.0124 14.0603L56.0652 20.528" fill="#AEC0CE" />
	<path d="M69.1765 16.1245C71.5604 15.2988 73.7456 14.6108 75.4011 13.9915C74.6065 11.5145 73.9443 9.24394 73.3483 7.5238L67.1237 9.65677L69.1765 16.1245" fill="#AEC0CE" />
	<path d="M109.438 11.2393C110.563 11.7898 110.696 12.1338 109.769 13.9227C108.842 15.7805 108.643 15.8493 107.451 15.3676C105.994 14.7484 104.206 14.2668 103.014 14.2668C101.094 14.2668 99.8359 14.9548 99.8359 16.0557C99.8359 19.6336 110.894 17.707 110.894 25.4132C110.894 29.2663 107.716 31.8122 102.948 31.8122C100.432 31.8122 97.3196 30.9177 95.2006 29.8168C94.1411 29.2663 94.0748 28.9223 95.0019 27.0646C95.7965 25.482 96.0614 25.2756 97.1871 25.7573C99.0413 26.5829 101.293 27.2022 102.882 27.2022C104.67 27.2022 105.796 26.4453 105.796 25.3444C105.796 21.8354 94.5384 23.4867 94.5384 16.0557C94.5384 12.1338 97.7169 9.45038 102.418 9.45038C104.67 9.65679 107.517 10.3448 109.438 11.2393" fill="#AEC0CE" />
	<path d="M118.377 2.157V30.7801C118.377 31.1929 117.914 31.6745 117.318 31.6745H114.404C113.742 31.6745 113.345 31.1929 113.345 30.7801V2.157C113.345 0.712088 113.742 0.643282 115.861 0.643282C118.245 0.574477 118.377 0.780893 118.377 2.157" fill="#AEC0CE" />
	<path fill-rule="evenodd" clip-rule="evenodd" d="M138.905 30.5048V18.1886C138.905 12.8218 135.395 9.65677 129.833 9.65677C127.317 9.65677 124.536 10.4824 122.549 11.8585C121.489 12.5466 121.489 12.8906 122.549 14.6108C123.675 16.3309 123.873 16.3997 124.933 15.7805C126.257 14.9548 127.913 14.4043 129.303 14.4043C132.217 14.4043 133.939 15.7805 133.939 18.051V19.4959C132.548 18.8767 130.826 18.5327 128.972 18.5327C124.006 18.5327 120.761 21.2849 120.761 25.4132C120.761 29.2663 123.675 31.8809 127.979 31.8809C130.23 31.8809 132.482 30.9177 134.005 29.1287L133.939 30.436C133.872 31.1241 134.336 31.6057 134.998 31.6057H137.846C138.441 31.6057 138.905 31.1929 138.905 30.5048ZM128.575 27.7526C126.787 27.7526 125.595 26.7893 125.595 25.3444C125.595 23.5555 127.383 22.1793 130.032 22.1793C131.29 22.1793 132.747 22.3858 133.872 22.8674V24.794C132.747 26.6517 130.76 27.7526 128.575 27.7526Z" fill="#AEC0CE" />
	<path d="M158.572 11.3081C159.632 11.9274 159.632 12.2714 158.506 14.1292C157.446 15.8493 157.248 15.9869 156.056 15.3677C155.195 14.886 153.738 14.4732 152.612 14.4732C148.97 14.4732 146.586 16.9502 146.586 20.7345C146.586 24.6564 148.97 27.271 152.612 27.271C153.871 27.271 155.46 26.7894 156.453 26.1701C157.513 25.5509 157.711 25.5509 158.837 27.271C159.83 28.8535 159.83 29.1976 158.903 29.8856C157.314 31.0553 154.731 31.9498 152.48 31.9498C145.792 31.9498 141.289 27.4774 141.289 20.8033C141.289 14.1292 145.792 9.72562 152.546 9.72562C154.665 9.65682 157.049 10.3449 158.572 11.3081" fill="#AEC0CE" />
	<path d="M180.491 28.922C181.351 30.0229 181.02 30.4357 178.901 31.1926C176.782 32.0182 176.451 31.9494 175.723 30.9173L169.697 22.5919L166.982 25.2753V30.7109C166.982 31.1238 166.518 31.6054 165.922 31.6054H163.009C162.347 31.6054 161.949 31.1238 161.949 30.7109V2.15666C161.949 0.71175 162.347 0.642944 164.466 0.642944C166.916 0.642944 166.982 0.849361 166.982 2.15666V18.3948L175.193 10.2069C176.12 9.31243 176.584 9.38124 178.239 10.4821C180.027 11.6518 180.159 11.9958 179.299 12.8903L173.206 19.0828L180.491 28.922" fill="#AEC0CE" />
</svg>
