<svg width="230" height="40" viewBox="0 0 230 40" fill="none" xmlns="http://www.w3.org/2000/svg">
	<path d="M75.1242 8.48896V22.558C75.1242 27.2476 73.1593 29.1966 68.536 29.1966C63.9128 29.1966 61.9479 27.2476 61.9479 22.558V7.87991H57.498C57.0934 7.87991 56.92 8.06263 56.92 8.48896V22.7407C56.92 30.5974 61.6589 33.3381 68.536 33.3381C75.4132 33.3381 80.152 30.5974 80.152 22.7407V7.87991H75.7021C75.3554 7.87991 75.1242 8.06263 75.1242 8.48896" fill="#AEC0CE" />
	<path d="M139.677 11.9605C140.024 11.9605 140.197 11.8387 140.313 11.5342L141.584 8.18444C141.642 8.00172 141.584 7.87991 141.411 7.87991H123.495C121.819 7.87991 121.184 8.42806 121.184 9.64615V31.4501C121.184 32.4855 121.646 32.9118 122.975 32.9118H139.677C140.024 32.9118 140.197 32.79 140.313 32.4855L141.584 29.1357C141.642 28.953 141.584 28.8312 141.411 28.8312H126.096V24.3851C126.096 22.8625 126.905 22.1316 129.043 22.1316H135.689C136.036 22.1316 136.209 22.0098 136.325 21.7053L137.539 18.4774C137.596 18.2946 137.539 18.1728 137.365 18.1728H126.038V11.9605H139.677" fill="#AEC0CE" />
	<path fill-rule="evenodd" clip-rule="evenodd" d="M110.897 14.214C110.897 16.5893 110.088 18.5992 108.123 19.6954C110.781 20.4872 111.995 22.9843 111.937 25.9686C111.937 30.9628 108.585 32.9118 103.904 32.9118H91.4791C90.15 32.9118 89.6876 32.4855 89.6876 31.4501V9.64615C89.6876 8.42806 90.3233 7.87991 91.9993 7.87991H102.17C106.62 7.87991 110.897 8.67168 110.897 14.214ZM94.6576 11.8996H102.517C105.118 11.8996 105.869 12.935 105.869 15.1276C105.869 17.2593 105.118 18.3555 102.517 18.3555H94.6576V11.8996ZM103.442 28.8921H94.6576V24.3242C94.6576 22.8016 95.4667 22.0707 97.6049 22.0707H103.442C106.216 22.0707 107.025 23.2279 107.025 25.4814C107.025 27.7958 106.216 28.8921 103.442 28.8921Z" fill="#AEC0CE" />
	<path fill-rule="evenodd" clip-rule="evenodd" d="M167.359 22.8625L172.676 32.4855C172.791 32.6073 172.791 32.9118 172.387 32.9118H167.879C167.546 32.9118 167.426 32.743 167.263 32.5136C167.257 32.5043 167.25 32.4949 167.243 32.4855L162.447 23.3497H158.054C155.916 23.3497 155.107 24.0806 155.107 25.6032V32.9118H150.773C150.368 32.9118 150.195 32.7291 150.195 32.3027V9.64615C150.195 8.42806 150.831 7.87991 152.506 7.87991H162.678C168.572 7.87991 172.155 9.52434 172.155 15.6148C172.155 20.3045 170.017 22.1316 167.359 22.8625ZM155.107 19.5127H163.371C166.492 19.5127 167.128 18.2337 167.128 15.6757C167.128 13.1786 166.434 11.8996 163.371 11.8996H155.107V19.5127Z" fill="#AEC0CE" />
</svg>
